<svg style="display: none;" xmlns="http://www.w3.org/2000/svg">
  <symbol id="icon-dashboard" viewBox="0 0 24 24" stroke="none">
    <path fill="currentColor" stroke="none" fill-rule="evenodd" clip-rule="evenodd"
      d="M3 6C3 4.34315 4.34315 3 6 3H8.25C9.90685 3 11.25 4.34315 11.25 6V8.25C11.25 9.90685 9.90685 11.25 8.25 11.25H6C4.34315 11.25 3 9.90685 3 8.25V6ZM12.75 6C12.75 4.34315 14.0931 3 15.75 3H18C19.6569 3 21 4.34315 21 6V8.25C21 9.90685 19.6569 11.25 18 11.25H15.75C14.0931 11.25 12.75 9.90685 12.75 8.25V6ZM3 15.75C3 14.0931 4.34315 12.75 6 12.75H8.25C9.90685 12.75 11.25 14.0931 11.25 15.75V18C11.25 19.6569 9.90685 21 8.25 21H6C4.34315 21 3 19.6569 3 18V15.75ZM12.75 15.75C12.75 14.0931 14.0931 12.75 15.75 12.75H18C19.6569 12.75 21 14.0931 21 15.75V18C21 19.6569 19.6569 21 18 21H15.75C14.0931 21 12.75 19.6569 12.75 18V15.75Z" />
  </symbol>
  <symbol id="icon-dashboard-solid" viewBox="0 0 24 24" stroke="none">
    <path fill="currentColor" stroke="none" fill-rule="evenodd" clip-rule="evenodd"
      d="M3 6C3 4.34315 4.34315 3 6 3H8.25C9.90685 3 11.25 4.34315 11.25 6V8.25C11.25 9.90685 9.90685 11.25 8.25 11.25H6C4.34315 11.25 3 9.90685 3 8.25V6ZM12.75 6C12.75 4.34315 14.0931 3 15.75 3H18C19.6569 3 21 4.34315 21 6V8.25C21 9.90685 19.6569 11.25 18 11.25H15.75C14.0931 11.25 12.75 9.90685 12.75 8.25V6ZM3 15.75C3 14.0931 4.34315 12.75 6 12.75H8.25C9.90685 12.75 11.25 14.0931 11.25 15.75V18C11.25 19.6569 9.90685 21 8.25 21H6C4.34315 21 3 19.6569 3 18V15.75ZM12.75 15.75C12.75 14.0931 14.0931 12.75 15.75 12.75H18C19.6569 12.75 21 14.0931 21 15.75V18C21 19.6569 19.6569 21 18 21H15.75C14.0931 21 12.75 19.6569 12.75 18V15.75Z" />
  </symbol>

  <symbol id="icon-patient" viewBox="0 0 24 24">
    <path fill="currentColor"
      d="M12.414 5H21a1 1 0 0 1 1 1v14a1 1 0 0 1-1 1H3a1 1 0 0 1-1-1V4a1 1 0 0 1 1-1h7.414zm-.414 1.5a3.5 3.5 0 1 0 0 7 3.5 3.5 0 0 0 0-7zm0 7.5c-3 0-6 2-6 5v1h12v-1c0-3-3-5-6-5z" />
  </symbol>

  <symbol id="icon-clinical-history" viewBox="0 0 24 24">
    <path fill="currentColor" fill-rule="evenodd" clip-rule="evenodd"
      d="M1 2h7l4 4h11v17H1V2zm9 7h4v4h4v4h-4v4h-4v-4H6v-4h4V9z" />
  </symbol>

  <symbol id="icon-medical-history" viewBox="0 0 384 512" stroke="none">
    <path fill="currentColor"
      d="M192 0c-41.8 0-77.4 26.7-90.5 64H64C28.7 64 0 92.7 0 128v320c0 35.3 28.7 64 64 64h256c35.3 0 64-28.7 64-64V128c0-35.3-28.7-64-64-64h-37.5C269.4 26.7 233.8 0 192 0m0 64a32 32 0 1 1 0 64a32 32 0 1 1 0-64m-80 128h160c8.8 0 16 7.2 16 16s-7.2 16-16 16H112c-8.8 0-16-7.2-16-16s7.2-16 16-16" />
  </symbol>

  <symbol id="icon-medical-record" viewBox="0 0 384 512">
    <path fill="currentColor"
      d="M377 105L279.1 7c-4.5-4.5-10.6-7-17-7H256v128h128v-6.1c0-6.3-2.5-12.4-7-16.9m-153 31V0H24C10.7 0 0 10.7 0 24v464c0 13.3 10.7 24 24 24h336c13.3 0 24-10.7 24-24V160H248c-13.2 0-24-10.8-24-24m64 160v48c0 4.4-3.6 8-8 8h-56v56c0 4.4-3.6 8-8 8h-48c-4.4 0-8-3.6-8-8v-56h-56c-4.4 0-8-3.6-8-8v-48c0-4.4 3.6-8 8-8h56v-56c0-4.4 3.6-8 8-8h48c4.4 0 8 3.6 8 8v56h56c4.4 0 8 3.6 8 8" />
  </symbol>

  <symbol id="icon-medical-evolution" viewBox="0 0 448 512">
    <path fill="currentColor"
      d="M288 136V0H88C74.7 0 64 10.7 64 24v232H8c-4.4 0-8 3.6-8 8v16c0 4.4 3.6 8 8 8h140.9c3 0 5.8 1.7 7.2 4.4l19.9 39.8l56.8-113.7c2.9-5.9 11.4-5.9 14.3 0l34.7 69.5H352c8.8 0 16 7.2 16 16s-7.2 16-16 16h-89.9L240 275.8l-56.8 113.7c-2.9 5.9-11.4 5.9-14.3 0L134.1 320H64v168c0 13.3 10.7 24 24 24h336c13.3 0 24-10.7 24-24V160H312c-13.2 0-24-10.8-24-24m153-31L343.1 7c-4.5-4.5-10.6-7-17-7H320v128h128v-6.1c0-6.3-2.5-12.4-7-16.9" />
  </symbol>

  <symbol id="icon-catalogs" viewBox="0 0 24 24" stroke="none">
    <path fill="currentColor" stroke="none"
      d="M11.25 4.53286C9.73455 3.56279 7.93246 3 6 3C4.86178 3 3.76756 3.19535 2.75007 3.55499C2.45037 3.66091 2.25 3.94425 2.25 4.26212V18.5121C2.25 18.7556 2.36818 18.9839 2.56696 19.1245C2.76574 19.265 3.02039 19.3004 3.24993 19.2192C4.10911 18.9156 5.03441 18.75 6 18.75C7.99502 18.75 9.82325 19.4573 11.25 20.6357V4.53286Z" />
    <path fill="currentColor" stroke="none"
      d="M12.75 20.6357C14.1768 19.4573 16.005 18.75 18 18.75C18.9656 18.75 19.8909 18.9156 20.7501 19.2192C20.9796 19.3004 21.2343 19.265 21.433 19.1245C21.6318 18.9839 21.75 18.7556 21.75 18.5121V4.26212C21.75 3.94425 21.5496 3.66091 21.2499 3.55499C20.2324 3.19535 19.1382 3 18 3C16.0675 3 14.2655 3.56279 12.75 4.53286V20.6357Z" />
  </symbol>
  <symbol id="icon-catalogs-solid" viewBox="0 0 24 24" stroke="none">
    <path fill="currentColor" stroke="none"
      d="M11.25 4.53286C9.73455 3.56279 7.93246 3 6 3C4.86178 3 3.76756 3.19535 2.75007 3.55499C2.45037 3.66091 2.25 3.94425 2.25 4.26212V18.5121C2.25 18.7556 2.36818 18.9839 2.56696 19.1245C2.76574 19.265 3.02039 19.3004 3.24993 19.2192C4.10911 18.9156 5.03441 18.75 6 18.75C7.99502 18.75 9.82325 19.4573 11.25 20.6357V4.53286Z" />
    <path fill="currentColor" stroke="none"
      d="M12.75 20.6357C14.1768 19.4573 16.005 18.75 18 18.75C18.9656 18.75 19.8909 18.9156 20.7501 19.2192C20.9796 19.3004 21.2343 19.265 21.433 19.1245C21.6318 18.9839 21.75 18.7556 21.75 18.5121V4.26212C21.75 3.94425 21.5496 3.66091 21.2499 3.55499C20.2324 3.19535 19.1382 3 18 3C16.0675 3 14.2655 3.56279 12.75 4.53286V20.6357Z" />
  </symbol>

  <symbol id="icon-messages" viewBox="0 0 24 24" stroke="none">
    <path fill="currentColor" stroke="none"
      d="M4.91307 2.65823C6.9877 2.38888 9.10296 2.25 11.2503 2.25C13.3974 2.25 15.5124 2.38885 17.5869 2.65815C19.5091 2.90769 20.8783 4.51937 20.9923 6.38495C20.6665 6.27614 20.3212 6.20396 19.96 6.17399C18.5715 6.05874 17.1673 6 15.75 6C14.3326 6 12.9285 6.05874 11.54 6.17398C9.1817 6.36971 7.5 8.36467 7.5 10.6082V14.8937C7.5 16.5844 8.45468 18.1326 9.9328 18.8779L7.28033 21.5303C7.06583 21.7448 6.74324 21.809 6.46299 21.6929C6.18273 21.5768 6 21.3033 6 21V16.9705C5.63649 16.9316 5.27417 16.8887 4.91308 16.8418C2.90466 16.581 1.5 14.8333 1.5 12.8626V6.63738C1.5 4.66672 2.90466 2.91899 4.91307 2.65823Z" />
    <path fill="currentColor" stroke="none"
      d="M15.75 7.5C14.3741 7.5 13.0114 7.55702 11.6641 7.66884C10.1248 7.7966 9 9.10282 9 10.6082V14.8937C9 16.4014 10.128 17.7083 11.6692 17.8341C12.9131 17.9357 14.17 17.9912 15.4384 17.999L18.2197 20.7803C18.4342 20.9948 18.7568 21.059 19.037 20.9429C19.3173 20.8268 19.5 20.5533 19.5 20.25V17.8601C19.6103 17.8518 19.7206 17.8432 19.8307 17.8342C21.372 17.7085 22.5 16.4015 22.5 14.8938V10.6082C22.5 9.10283 21.3752 7.79661 19.836 7.66885C18.4886 7.55702 17.1259 7.5 15.75 7.5Z" />
  </symbol>
  <symbol id="icon-messages-solid" viewBox="0 0 24 24" stroke="none">
    <path fill="currentColor"
      d="M4.91307 2.65823C6.9877 2.38888 9.10296 2.25 11.2503 2.25C13.3974 2.25 15.5124 2.38885 17.5869 2.65815C19.5091 2.90769 20.8783 4.51937 20.9923 6.38495C20.6665 6.27614 20.3212 6.20396 19.96 6.17399C18.5715 6.05874 17.1673 6 15.75 6C14.3326 6 12.9285 6.05874 11.54 6.17398C9.1817 6.36971 7.5 8.36467 7.5 10.6082V14.8937C7.5 16.5844 8.45468 18.1326 9.9328 18.8779L7.28033 21.5303C7.06583 21.7448 6.74324 21.809 6.46299 21.6929C6.18273 21.5768 6 21.3033 6 21V16.9705C5.63649 16.9316 5.27417 16.8887 4.91308 16.8418C2.90466 16.581 1.5 14.8333 1.5 12.8626V6.63738C1.5 4.66672 2.90466 2.91899 4.91307 2.65823Z" />
    <path fill="currentColor"
      d="M15.75 7.5C14.3741 7.5 13.0114 7.55702 11.6641 7.66884C10.1248 7.7966 9 9.10282 9 10.6082V14.8937C9 16.4014 10.128 17.7083 11.6692 17.8341C12.9131 17.9357 14.17 17.9912 15.4384 17.999L18.2197 20.7803C18.4342 20.9948 18.7568 21.059 19.037 20.9429C19.3173 20.8268 19.5 20.5533 19.5 20.25V17.8601C19.6103 17.8518 19.7206 17.8432 19.8307 17.8342C21.372 17.7085 22.5 16.4015 22.5 14.8938V10.6082C22.5 9.10283 21.3752 7.79661 19.836 7.66885C18.4886 7.55702 17.1259 7.5 15.75 7.5Z" />
  </symbol>

  <symbol id="icon-support" viewBox="0 0 24 24" stroke="none">
    <path fill="currentColor" stroke="none" fill-rule="evenodd" clip-rule="evenodd"
      d="M12 6.75C12 3.85051 14.3505 1.5 17.25 1.5C17.7791 1.5 18.2913 1.57852 18.7747 1.72505C19.027 1.80151 19.2206 2.00479 19.2847 2.26048C19.3488 2.51618 19.2739 2.78674 19.0875 2.97313L15.7688 6.29183C15.8305 6.76741 16.0438 7.22581 16.409 7.59099C16.7742 7.95617 17.2326 8.16947 17.7082 8.23117L21.0269 4.91247C21.2133 4.72608 21.4838 4.65122 21.7395 4.7153C21.9952 4.77938 22.1985 4.97299 22.275 5.22526C22.4215 5.7087 22.5 6.22086 22.5 6.75C22.5 9.64949 20.1495 12 17.25 12C17.0995 12 16.9503 11.9936 16.8027 11.9812C15.7855 11.8952 14.9338 12.0816 14.4944 12.6151L7.34327 21.2987C6.71684 22.0593 5.78308 22.5 4.79769 22.5C2.97642 22.5 1.5 21.0236 1.5 19.2023C1.5 18.2169 1.94067 17.2832 2.70132 16.6567L11.3849 9.50557C11.9184 9.06623 12.1048 8.21453 12.0188 7.19728C12.0064 7.04968 12 6.9005 12 6.75ZM4.11723 19.125C4.11723 18.7108 4.45302 18.375 4.86723 18.375H4.87473C5.28895 18.375 5.62473 18.7108 5.62473 19.125V19.1325C5.62473 19.5468 5.28895 19.8825 4.87473 19.8825H4.86723C4.45302 19.8825 4.11723 19.5468 4.11723 19.1325V19.125Z" />
    <path fill="currentColor" stroke="none"
      d="M10.076 8.64031L7.87502 6.43936V4.87502C7.87502 4.61157 7.73679 4.36744 7.51089 4.2319L3.76089 1.9819C3.46578 1.80483 3.08804 1.85133 2.84469 2.09469L2.09469 2.84469C1.85133 3.08804 1.80483 3.46578 1.9819 3.76089L4.2319 7.51089C4.36744 7.73679 4.61157 7.87502 4.87502 7.87502H6.43936L8.50138 9.93704L10.076 8.64031Z" />
    <path fill="currentColor" stroke="none" fill-rule="evenodd" clip-rule="evenodd"
      d="M12.5559 17.3287L16.7386 21.5114C18.0567 22.8294 20.1936 22.8294 21.5116 21.5114C22.8296 20.1934 22.8296 18.0565 21.5116 16.7385L18.206 13.4328C17.8937 13.4771 17.5746 13.5 17.2501 13.5C17.0574 13.5 16.866 13.4918 16.6765 13.4758C16.2822 13.4425 15.994 13.4696 15.8089 13.5177C15.7053 13.5446 15.6574 13.5713 15.6419 13.5814L12.5559 17.3287ZM15.9698 15.9697C16.2627 15.6768 16.7375 15.6768 17.0304 15.9697L18.9054 17.8447C19.1983 18.1376 19.1983 18.6124 18.9054 18.9053C18.6125 19.1982 18.1377 19.1982 17.8448 18.9053L15.9698 17.0303C15.6769 16.7374 15.6769 16.2626 15.9698 15.9697Z" />
  </symbol>
  <symbol id="icon-support-solid" viewBox="0 0 24 24" stroke="none">
    <path fill="currentColor" stroke="none" fill-rule="evenodd" clip-rule="evenodd"
      d="M12 6.75C12 3.85051 14.3505 1.5 17.25 1.5C17.7791 1.5 18.2913 1.57852 18.7747 1.72505C19.027 1.80151 19.2206 2.00479 19.2847 2.26048C19.3488 2.51618 19.2739 2.78674 19.0875 2.97313L15.7688 6.29183C15.8305 6.76741 16.0438 7.22581 16.409 7.59099C16.7742 7.95617 17.2326 8.16947 17.7082 8.23117L21.0269 4.91247C21.2133 4.72608 21.4838 4.65122 21.7395 4.7153C21.9952 4.77938 22.1985 4.97299 22.275 5.22526C22.4215 5.7087 22.5 6.22086 22.5 6.75C22.5 9.64949 20.1495 12 17.25 12C17.0995 12 16.9503 11.9936 16.8027 11.9812C15.7855 11.8952 14.9338 12.0816 14.4944 12.6151L7.34327 21.2987C6.71684 22.0593 5.78308 22.5 4.79769 22.5C2.97642 22.5 1.5 21.0236 1.5 19.2023C1.5 18.2169 1.94067 17.2832 2.70132 16.6567L11.3849 9.50557C11.9184 9.06623 12.1048 8.21453 12.0188 7.19728C12.0064 7.04968 12 6.9005 12 6.75ZM4.11723 19.125C4.11723 18.7108 4.45302 18.375 4.86723 18.375H4.87473C5.28895 18.375 5.62473 18.7108 5.62473 19.125V19.1325C5.62473 19.5468 5.28895 19.8825 4.87473 19.8825H4.86723C4.45302 19.8825 4.11723 19.5468 4.11723 19.1325V19.125Z" />
    <path fill="currentColor" stroke="none"
      d="M10.076 8.64031L7.87502 6.43936V4.87502C7.87502 4.61157 7.73679 4.36744 7.51089 4.2319L3.76089 1.9819C3.46578 1.80483 3.08804 1.85133 2.84469 2.09469L2.09469 2.84469C1.85133 3.08804 1.80483 3.46578 1.9819 3.76089L4.2319 7.51089C4.36744 7.73679 4.61157 7.87502 4.87502 7.87502H6.43936L8.50138 9.93704L10.076 8.64031Z" />
    <path fill="currentColor" stroke="none" fill-rule="evenodd" clip-rule="evenodd"
      d="M12.5559 17.3287L16.7386 21.5114C18.0567 22.8294 20.1936 22.8294 21.5116 21.5114C22.8296 20.1934 22.8296 18.0565 21.5116 16.7385L18.206 13.4328C17.8937 13.4771 17.5746 13.5 17.2501 13.5C17.0574 13.5 16.866 13.4918 16.6765 13.4758C16.2822 13.4425 15.994 13.4696 15.8089 13.5177C15.7053 13.5446 15.6574 13.5713 15.6419 13.5814L12.5559 17.3287ZM15.9698 15.9697C16.2627 15.6768 16.7375 15.6768 17.0304 15.9697L18.9054 17.8447C19.1983 18.1376 19.1983 18.6124 18.9054 18.9053C18.6125 19.1982 18.1377 19.1982 17.8448 18.9053L15.9698 17.0303C15.6769 16.7374 15.6769 16.2626 15.9698 15.9697Z" />
  </symbol>

  <symbol id="icon-menu" viewBox="0 0 24 24">
    <line x1="3" y1="12" x2="21" y2="12" />
    <line x1="3" y1="6" x2="21" y2="6" />
    <line x1="3" y1="18" x2="21" y2="18" />
  </symbol>

  <symbol id="icon-menu-solid" viewBox="0 0 24 24">
    <path fill="none" stroke="currentColor" stroke-linecap="round" stroke-width="2.6" d="M9.41 7.3H9.4m5.2 0h-.01M9.31 12H9.3m5.3 0h-.01m-5.18 4.7H9.4m5.2 0h-.01" />  
  </symbol>

  <symbol id="icon-chevron-left" viewBox="0 0 24 24">
    <polyline points="15 18 9 12 15 6" />
  </symbol>

  <symbol id="icon-chevron-right" viewBox="0 0 24 24">
    <polyline points="9 18 15 12 9 6" />
  </symbol>

  <symbol id="icon-chevron-down" viewBox="0 0 24 24">
    <polyline points="6 9 12 15 18 9" />
  </symbol>

  <symbol id="icon-users" viewBox="0 0 24 24" stroke="none">
    <path fill="currentColor" stroke="none" fill-rule="evenodd" clip-rule="evenodd"
      d="M8.25 6.75C8.25 4.67893 9.92893 3 12 3C14.0711 3 15.75 4.67893 15.75 6.75C15.75 8.82107 14.0711 10.5 12 10.5C9.92893 10.5 8.25 8.82107 8.25 6.75Z" />
    <path fill="currentColor" stroke="none" fill-rule="evenodd" clip-rule="evenodd"
      d="M15.75 9.75C15.75 8.09315 17.0931 6.75 18.75 6.75C20.4069 6.75 21.75 8.09315 21.75 9.75C21.75 11.4069 20.4069 12.75 18.75 12.75C17.0931 12.75 15.75 11.4069 15.75 9.75Z" />
    <path fill="currentColor" stroke="none" fill-rule="evenodd" clip-rule="evenodd"
      d="M2.25 9.75C2.25 8.09315 3.59315 6.75 5.25 6.75C6.90685 6.75 8.25 8.09315 8.25 9.75C8.25 11.4069 6.90685 12.75 5.25 12.75C3.59315 12.75 2.25 11.4069 2.25 9.75Z" />
    <path fill="currentColor" stroke="none" fill-rule="evenodd" clip-rule="evenodd"
      d="M6.30986 15.1175C7.50783 13.2444 9.60835 12 12 12C14.3919 12 16.4927 13.2447 17.6906 15.1182C18.5187 16.4134 18.877 17.9752 18.709 19.4979C18.6827 19.7359 18.5444 19.947 18.3368 20.0662C16.4694 21.1376 14.3051 21.75 12 21.75C9.69492 21.75 7.53059 21.1376 5.66325 20.0662C5.45559 19.947 5.3173 19.7359 5.29103 19.4979C5.12293 17.9749 5.48141 16.4129 6.30986 15.1175Z" />
    <path fill="currentColor" stroke="none"
      d="M5.08228 14.2537C5.07024 14.2722 5.05827 14.2907 5.04638 14.3093C4.08091 15.8189 3.63908 17.6167 3.77471 19.389C3.16667 19.2967 2.5767 19.1481 2.01043 18.9487L1.89547 18.9082C1.68576 18.8343 1.53923 18.6439 1.52159 18.4222L1.51192 18.3007C1.50402 18.2014 1.5 18.1011 1.5 18C1.5 15.9851 3.08905 14.3414 5.08228 14.2537Z" />
    <path fill="currentColor" stroke="none"
      d="M20.2256 19.389C20.3612 17.617 19.9196 15.8196 18.9545 14.3102C18.9424 14.2913 18.9303 14.2725 18.9181 14.2537C20.9111 14.3416 22.5 15.9853 22.5 18C22.5 18.1011 22.496 18.2014 22.4881 18.3007L22.4784 18.4222C22.4608 18.6439 22.3142 18.8343 22.1045 18.9082L21.9896 18.9487C21.4234 19.1481 20.8336 19.2966 20.2256 19.389Z" />
  </symbol>

  <symbol id="icon-users-solid" viewBox="0 0 24 24" stroke="none">
    <path fill="currentColor" stroke="none" fill-rule="evenodd" clip-rule="evenodd"
      d="M8.25 6.75C8.25 4.67893 9.92893 3 12 3C14.0711 3 15.75 4.67893 15.75 6.75C15.75 8.82107 14.0711 10.5 12 10.5C9.92893 10.5 8.25 8.82107 8.25 6.75Z" />
    <path fill="currentColor" stroke="none" fill-rule="evenodd" clip-rule="evenodd"
      d="M15.75 9.75C15.75 8.09315 17.0931 6.75 18.75 6.75C20.4069 6.75 21.75 8.09315 21.75 9.75C21.75 11.4069 20.4069 12.75 18.75 12.75C17.0931 12.75 15.75 11.4069 15.75 9.75Z" />
    <path fill="currentColor" stroke="none" fill-rule="evenodd" clip-rule="evenodd"
      d="M2.25 9.75C2.25 8.09315 3.59315 6.75 5.25 6.75C6.90685 6.75 8.25 8.09315 8.25 9.75C8.25 11.4069 6.90685 12.75 5.25 12.75C3.59315 12.75 2.25 11.4069 2.25 9.75Z" />
    <path fill="currentColor" stroke="none" fill-rule="evenodd" clip-rule="evenodd"
      d="M6.30986 15.1175C7.50783 13.2444 9.60835 12 12 12C14.3919 12 16.4927 13.2447 17.6906 15.1182C18.5187 16.4134 18.877 17.9752 18.709 19.4979C18.6827 19.7359 18.5444 19.947 18.3368 20.0662C16.4694 21.1376 14.3051 21.75 12 21.75C9.69492 21.75 7.53059 21.1376 5.66325 20.0662C5.45559 19.947 5.3173 19.7359 5.29103 19.4979C5.12293 17.9749 5.48141 16.4129 6.30986 15.1175Z" />
    <path fill="currentColor" stroke="none"
      d="M5.08228 14.2537C5.07024 14.2722 5.05827 14.2907 5.04638 14.3093C4.08091 15.8189 3.63908 17.6167 3.77471 19.389C3.16667 19.2967 2.5767 19.1481 2.01043 18.9487L1.89547 18.9082C1.68576 18.8343 1.53923 18.6439 1.52159 18.4222L1.51192 18.3007C1.50402 18.2014 1.5 18.1011 1.5 18C1.5 15.9851 3.08905 14.3414 5.08228 14.2537Z" />
    <path fill="currentColor" stroke="none"
      d="M20.2256 19.389C20.3612 17.617 19.9196 15.8196 18.9545 14.3102C18.9424 14.2913 18.9303 14.2725 18.9181 14.2537C20.9111 14.3416 22.5 15.9853 22.5 18C22.5 18.1011 22.496 18.2014 22.4881 18.3007L22.4784 18.4222C22.4608 18.6439 22.3142 18.8343 22.1045 18.9082L21.9896 18.9487C21.4234 19.1481 20.8336 19.2966 20.2256 19.389Z" />
  </symbol>

  <symbol id="icon-user-voice" viewBox="0 0 24 24" stroke="none">
    <g transform="translate(12 12) scale(1.30) translate(-12 -12)">
      <path fill="currentColor"
        d="M8 12.052c1.995 0 3.5-1.505 3.5-3.5s-1.505-3.5-3.5-3.5s-3.5 1.505-3.5 3.5s1.505 3.5 3.5 3.5M9 13H7c-2.757 0-5 2.243-5 5v1h12v-1c0-2.757-2.243-5-5-5m9.364-10.364L16.95 4.05C18.271 5.373 19 7.131 19 9s-.729 3.627-2.05 4.95l1.414 1.414C20.064 13.663 21 11.403 21 9s-.936-4.663-2.636-6.364" />
      <path fill="currentColor"
        d="M15.535 5.464L14.121 6.88C14.688 7.445 15 8.198 15 9s-.312 1.555-.879 2.12l1.414 1.416C16.479 11.592 17 10.337 17 9s-.521-2.592-1.465-3.536" />
    </g>
  </symbol>

  <symbol id="icon-demography" viewBox="0 0 384 512" stroke="none">
    <path fill="currentColor"
      d="M0 64C0 28.7 28.7 0 64 0h160v128c0 17.7 14.3 32 32 32h128v288c0 35.3-28.7 64-64 64H64c-35.3 0-64-28.7-64-64zm384 64H256V0z" />
  </symbol>

  <symbol id="icon-eye" viewBox="0 0 24 24">
    <path d="M1 12s4-8 11-8 11 8 11 8-4 8-11 8-11-8-11-8z" />
    <circle cx="12" cy="12" r="3" />
  </symbol>

  <symbol id="icon-eye-off" viewBox="0 0 24 24">
    <path d="M17.94 17.94A10.07 10.07 0 0 1 12 20c-7 0-11-8-11-8a18.45 18.45 0 0 1 5.06-5.94M9.9 4.24A9.12 9.12 0 0 1 12 4c7 0 11 8 11 8a18.5 18.5 0 0 1-2.16 3.19m-6.72-1.07a3 3 0 1 1-4.24-4.24" />
    <line x1="1" y1="1" x2="23" y2="23" />
  </symbol>

  <symbol id="icon-see-details" viewBox="64 64 448 448">
    <path fill="currentColor"
      d="M480 272c0 45.9-14.9 88.3-40 122.7l126.6 126.7c12.5 12.5 12.5 32.8 0 45.3s-32.8 12.5-45.3 0L394.7 440c-34.4 25.1-76.8 40-122.7 40c-114.9 0-208-93.1-208-208S157.1 64 272 64s208 93.1 208 208m-208-96c-13.3 0-24 10.7-24 24v48h-48c-13.3 0-24 10.7-24 24s10.7 24 24 24h48v48c0 13.3 10.7 24 24 24s24-10.7 24-24v-48h48c13.3 0 24-10.7 24-24s-10.7-24-24-24h-48v-48c0-13.3-10.7-24-24-24" />
  </symbol>

  <symbol id="icon-upload" viewBox="0 0 24 24">
    <path d="M21 15v4a2 2 0 0 1-2 2H5a2 2 0 0 1-2-2v-4" />
    <polyline points="17 8 12 3 7 8" />
    <line x1="12" y1="3" x2="12" y2="15" />
  </symbol>

  <symbol id="icon-trash" viewBox="0 0 24 24" stroke="none">
    <path fill="currentColor" d="M20 6a1 1 0 0 1 .117 1.993l-.117 .007h-.081l-.919 11a3 3 0 0 1 -2.824 2.995l-.176 .005h-8c-1.598 0 -2.904 -1.249 -2.992 -2.75l-.005 -.167l-.923 -11.083h-.08a1 1 0 0 1 -.117 -1.993l.117 -.007h16z" />
    <path fill="currentColor" d="M14 2a2 2 0 0 1 2 2a1 1 0 0 1 -1.993 .117l-.007 -.117h-4l-.007 .117a1 1 0 0 1 -1.993 -.117a2 2 0 0 1 1.85 -1.995l.15 -.005h4z" />
  </symbol>
  <symbol id="icon-trash-solid" viewBox="0 0 24 24" stroke="none">
    <path fill="currentColor" d="M20 6a1 1 0 0 1 .117 1.993l-.117 .007h-.081l-.919 11a3 3 0 0 1 -2.824 2.995l-.176 .005h-8c-1.598 0 -2.904 -1.249 -2.992 -2.75l-.005 -.167l-.923 -11.083h-.08a1 1 0 0 1 -.117 -1.993l.117 -.007h16z" />
    <path fill="currentColor" d="M14 2a2 2 0 0 1 2 2a1 1 0 0 1 -1.993 .117l-.007 -.117h-4l-.007 .117a1 1 0 0 1 -1.993 -.117a2 2 0 0 1 1.85 -1.995l.15 -.005h4z" />
  </symbol>

  <symbol id="icon-save" viewBox="0 0 24 24">
    <path d="M19 21H5a2 2 0 0 1-2-2V5a2 2 0 0 1 2-2h11l5 5v11a2 2 0 0 1-2 2z" />
    <polyline points="17 21 17 13 7 13 7 21" />
    <polyline points="7 3 7 8 15 8" />
  </symbol>

  <symbol id="icon-lock" viewBox="0 0 24 24" stroke="none">
    <path fill="currentColor" d="M12 2a5 5 0 0 1 5 5v3a3 3 0 0 1 3 3v6a3 3 0 0 1 -3 3h-10a3 3 0 0 1 -3 -3v-6a3 3 0 0 1 3 -3v-3a5 5 0 0 1 5 -5m0 12a2 2 0 0 0 -1.995 1.85l-.005 .15a2 2 0 1 0 2 -2m0 -10a3 3 0 0 0 -3 3v3h6v-3a3 3 0 0 0 -3 -3" />
  </symbol>
  <symbol id="icon-lock-solid" viewBox="0 0 24 24" stroke="none">
    <path fill="currentColor" d="M12 2a5 5 0 0 1 5 5v3a3 3 0 0 1 3 3v6a3 3 0 0 1 -3 3h-10a3 3 0 0 1 -3 -3v-6a3 3 0 0 1 3 -3v-3a5 5 0 0 1 5 -5m0 12a2 2 0 0 0 -1.995 1.85l-.005 .15a2 2 0 1 0 2 -2m0 -10a3 3 0 0 0 -3 3v3h6v-3a3 3 0 0 0 -3 -3" />
  </symbol>

  <symbol id="icon-x" viewBox="0 0 24 24">
    <line x1="18" y1="6" x2="6" y2="18" />
    <line x1="6" y1="6" x2="18" y2="18" />
  </symbol>
  <symbol id="icon-x-solid" viewBox="0 0 24 24" stroke="none">
    <path fill="currentColor"
      d="M6.47 5.41a1.5 1.5 0 0 0-2.12 2.12L9.88 13l-5.53 5.47a1.5 1.5 0 0 0 2.12 2.12L12 15.12l5.47 5.47a1.5 1.5 0 0 0 2.12-2.12L14.12 13l5.47-5.47a1.5 1.5 0 0 0-2.12-2.12L12 10.88z" />
  </symbol>

  <symbol id="icon-user" viewBox="0 0 24 24">
    <path d="M19 21v-2a4 4 0 0 0-4-4H9a4 4 0 0 0-4 4v2" />
    <circle cx="12" cy="7" r="4" />
  </symbol>

  <symbol id="icon-phone" viewBox="0 0 48 48">
    <path fill="none" stroke="currentColor" stroke-linecap="round" stroke-linejoin="round" stroke-width="4"
      d="M41.78 20.607a13.1 13.1 0 0 0-.25-5.102a12.94 12.94 0 0 0-3.415-6.018a12.94 12.94 0 0 0-6.018-3.416a13.1 13.1 0 0 0-5.102-.249m7.195 13.982a5.99 5.99 0 0 0-1.692-5.132a5.99 5.99 0 0 0-5.132-1.692" />
    <path fill="currentColor"
      d="M14.376 8.794a2 2 0 0 1 1.748 1.03l2.447 4.406a2 2 0 0 1 .04 1.866l-2.357 4.713s.683 3.512 3.541 6.37c2.859 2.858 6.359 3.53 6.359 3.53l4.712-2.357a2 2 0 0 1 1.867.041l4.42 2.457a2 2 0 0 1 1.027 1.748v5.074c0 2.583-2.4 4.45-4.848 3.623c-5.028-1.696-12.832-4.927-17.78-9.873c-4.946-4.947-8.176-12.752-9.873-17.78c-.826-2.448 1.04-4.848 3.624-4.848z" />
  </symbol>

  <symbol id="icon-id-card" viewBox="0 0 24 24">
    <rect x="2" y="5" width="20" height="14" rx="2" />
    <path d="M8 10h8" />
    <path d="M8 14h8" />
    <path d="M6 10h.01" />
    <path d="M6 14h.01" />
  </symbol>

  <symbol id="icon-stethoscope" viewBox="0 0 24 24">
    <path d="M4.8 2.3A.3.3 0 1 0 5 2H4a2 2 0 0 0-2 2v5a6 6 0 0 0 6 6v0a6 6 0 0 0 6-6V4a2 2 0 0 0-2-2h-1a.2.2 0 1 0 .3.3" />
    <path d="M8 15v1a6 6 0 0 0 6 6v0a6 6 0 0 0 6-6v-4" />
    <circle cx="20" cy="10" r="2" />
  </symbol>

  <symbol id="icon-camera" viewBox="0 0 24 24">
    <path d="M23 19a2 2 0 0 1-2 2H3a2 2 0 0 1-2-2V8a2 2 0 0 1 2-2h4l2-3h6l2 3h4a2 2 0 0 1 2 2z" />
    <circle cx="12" cy="13" r="4" />
  </symbol>

  <symbol id="icon-briefcase" viewBox="0 0 24 24" stroke="none">
    <path fill="currentColor" d="M14 2a3 3 0 0 1 3 3v1h2a3 3 0 0 1 3 3v9a3 3 0 0 1 -3 3h-14a3 3 0 0 1 -3 -3v-9a3 3 0 0 1 3 -3h2v-1a3 3 0 0 1 3 -3zm0 2h-4a1 1 0 0 0 -1 1v1h6v-1a1 1 0 0 0 -1 -1" />
  </symbol>

  <symbol id="icon-warning" viewBox="0 0 24 24">
    <path d="M10.29 3.86L1.82 18a2 2 0 0 0 1.71 3.05h16.94a2 2 0 0 0 1.71-3.05l-8.47-14.14a2 2 0 0 0-3.42 0z" />
    <line x1="12" y1="9" x2="12" y2="13" />
    <line x1="12" y1="17" x2="12.01" y2="17" />
  </symbol>
  <symbol id="icon-warning-solid" viewBox="0 0 24 24" stroke="none">
    <path fill="currentColor" fill-rule="evenodd"
      d="M10.29 3.86L1.82 18a2 2 0 0 0 1.71 3.05h16.94a2 2 0 0 0 1.71-3.05l-8.47-14.14a2 2 0 0 0-3.42 0zM13 9a1 1 0 1 0-2 0v4a1 1 0 1 0 2 0zM12 17.75a1.25 1.25 0 1 0 0-2.5a1.25 1.25 0 0 0 0 2.5z" />
  </symbol>

  <symbol id="icon-check" viewBox="0 0 24 24">
    <polyline points="20 6 9 17 4 12" />
  </symbol>
  <symbol id="icon-check-solid" viewBox="0 0 24 24" stroke="none">
    <path fill="currentColor"
      d="M9.53 17.78a1.5 1.5 0 0 1-2.12 0l-3.75-3.75a1.5 1.5 0 1 1 2.12-2.12l2.69 2.69 9.72-9.72a1.5 1.5 0 0 1 2.12 2.12z" />
  </symbol>

  <symbol id="icon-maximize" viewBox="0 0 24 24">
    <path fill="currentColor" d="M5 12H3v9h9v-2H5zm7-7h7v7h2V3h-9z" />
  </symbol>

  <symbol id="icon-plus-solid" viewBox="0 0 24 24" stroke="none">
    <path fill="currentColor"
      d="M12 3a1.5 1.5 0 0 1 1.5 1.5v6h6a1.5 1.5 0 1 1 0 3h-6v6a1.5 1.5 0 1 1-3 0v-6h-6a1.5 1.5 0 1 1 0-3h6v-6A1.5 1.5 0 0 1 12 3z" />
  </symbol>

  <symbol id="icon-activate-solid" viewBox="0 0 24 24" stroke="none">
    <path fill="currentColor"
      d="M11.998 2l.118 .007l.059 .008l.061 .013l.111 .034a.993 .993 0 0 1 .217 .112l.104 .082l.255 .218a11 11 0 0 0 7.189 2.537l.342 -.01a1 1 0 0 1 1.005 .717a13 13 0 0 1 -9.208 16.25a1 1 0 0 1 -.502 0a13 13 0 0 1 -9.209 -16.25a1 1 0 0 1 1.005 -.717a11 11 0 0 0 7.531 -2.527l.263 -.225l.096 -.075a.993 .993 0 0 1 .217 -.112l.112 -.034a.97 .97 0 0 1 .119 -.021l.115 -.007zm3.71 7.293a1 1 0 0 0 -1.415 0l-3.293 3.292l-1.293 -1.292l-.094 -.083a1 1 0 0 0 -1.32 1.497l2 2l.094 .083a1 1 0 0 0 1.32 -.083l4 -4l.083 -.094a1 1 0 0 0 -.083 -1.32z" />
  </symbol>

  <symbol id="icon-alert-triangle" viewBox="0 0 24 24">
    <path fill="none" stroke="currentColor" stroke-linecap="round" stroke-linejoin="round"
      stroke-width="2"
      d="m21.73 18l-8-14a2 2 0 0 0-3.48 0l-8 14A2 2 0 0 0 4 21h16a2 2 0 0 0 1.73-3M12 9v4m0 4h.01" />
  </symbol>

  <symbol id="icon-alert-circle" viewBox="0 0 24 24" stroke="none">
    <path fill="#ef4444" d="M12 2c5.523 0 10 4.477 10 10a10 10 0 0 1 -19.995 .324l-.005 -.324l.004 -.28c.148 -5.393 4.566 -9.72 9.996 -9.72zm.01 13l-.127 .007a1 1 0 0 0 0 1.986l.117 .007l.127 -.007a1 1 0 0 0 0 -1.986l-.117 -.007zm-.01 -8a1 1 0 0 0 -.993 .883l-.007 .117v4l.007 .117a1 1 0 0 0 1.986 0l.007 -.117v-4l-.007 -.117a1 1 0 0 0 -.993 -.883z" />
  </symbol>

  <symbol id="icon-alert-circle-solid" viewBox="0 0 24 24" stroke="none">
    <path fill="#ef4444" d="M12 2c5.523 0 10 4.477 10 10a10 10 0 0 1 -19.995 .324l-.005 -.324l.004 -.28c.148 -5.393 4.566 -9.72 9.996 -9.72zm.01 13l-.127 .007a1 1 0 0 0 0 1.986l.117 .007l.127 -.007a1 1 0 0 0 0 -1.986l-.117 -.007zm-.01 -8a1 1 0 0 0 -.993 .883l-.007 .117v4l.007 .117a1 1 0 0 0 1.986 0l.007 -.117v-4l-.007 -.117a1 1 0 0 0 -.993 -.883z" />
  </symbol>

  <symbol id="icon-info" viewBox="0 0 14 14">
    <g fill="none" stroke="currentColor" stroke-linecap="round" stroke-linejoin="round"
      stroke-width="1">
      <path
        d="M9.901 4.317v1.364M9.9 2.662a.124.124 0 0 1-.124-.125c0-.07.056-.125.124-.125m.002.25a.125.125 0 0 0 .124-.125a.124.124 0 0 0-.124-.125M.857 12.864h12.007M1.989 6.829a1.939 1.939 0 1 0 3.878 0a1.939 1.939 0 1 0-3.878 0" />
      <path
        d="M.855 12.865v-1.024a3.072 3.072 0 1 1 6.145 0v1.024m.394-6.149A3.554 3.554 0 1 0 6.33 4" />
    </g>
  </symbol>

  <symbol id="icon-info-circle" viewBox="0 0 24 24">
    <circle cx="12" cy="12" r="10" />
    <line x1="12" y1="16" x2="12" y2="12" />
    <line x1="12" y1="8" x2="12.01" y2="8" />
  </symbol>

  <symbol id="icon-bell" viewBox="0 0 24 24">
    <path d="M18 8A6 6 0 0 0 6 8c0 7-3 9-3 9h18s-3-2-3-9" />
    <path d="M13.73 21a2 2 0 0 1-3.46 0" />
  </symbol>

  <symbol id="icon-mail" viewBox="0 0 24 24">
    <path d="M4 4h16c1.1 0 2 .9 2 2v12c0 1.1-.9 2-2 2H4c-1.1 0-2-.9-2-2V6c0-1.1.9-2 2-2z" />
    <polyline points="22,6 12,13 2,6" />
  </symbol>

  <symbol id="icon-user-plus" viewBox="0 0 24 24" stroke="none">
    <path fill="currentColor" d="M9 12a4.5 4.5 0 1 0-4.5-4.5A4.5 4.5 0 0 0 9 12" />
    <path fill="currentColor" d="M2 19.25A5.25 5.25 0 0 1 7.25 14h3.5A5.25 5.25 0 0 1 16 19.25V21H2z" />
    <path fill="currentColor"
      d="M18.5 5a1 1 0 0 1 1 1v2.5H22a1 1 0 1 1 0 2h-2.5V13a1 1 0 1 1-2 0v-2.5H15a1 1 0 1 1 0-2h2.5V6a1 1 0 0 1 1-1" />
  </symbol>
  <symbol id="icon-user-plus-solid" viewBox="0 0 24 24" stroke="none">
    <path fill="currentColor" d="M9 12a4.5 4.5 0 1 0-4.5-4.5A4.5 4.5 0 0 0 9 12" />
    <path fill="currentColor" d="M2 19.25A5.25 5.25 0 0 1 7.25 14h3.5A5.25 5.25 0 0 1 16 19.25V21H2z" />
    <path fill="currentColor"
      d="M18.5 5a1 1 0 0 1 1 1v2.5H22a1 1 0 1 1 0 2h-2.5V13a1 1 0 1 1-2 0v-2.5H15a1 1 0 1 1 0-2h2.5V6a1 1 0 0 1 1-1" />
  </symbol>
  <symbol id="icon-user-solid" viewBox="0 0 24 24" stroke="none">
    <path fill="currentColor" d="M12 12a5 5 0 1 0-5-5a5 5 0 0 0 5 5z" />
    <path fill="currentColor" d="M3 20a7 7 0 0 1 7-7h4a7 7 0 0 1 7 7v1H3z" />
  </symbol>
  <symbol id="icon-id-card-solid" viewBox="0 0 24 24" stroke="none">
    <path fill="currentColor" d="M22 10v6a4 4 0 0 1 -4 4h-12a4 4 0 0 1 -4 -4v-6h20zm-14.99 4h-.01a1 1 0 1 0 .01 2a1 1 0 0 0 0 -2zm5.99 0h-2a1 1 0 0 0 0 2h2a1 1 0 0 0 0 -2zm5 -10a4 4 0 0 1 4 4h-20a4 4 0 0 1 4 -4h12z" />
  </symbol>
  <symbol id="icon-calendar-solid" viewBox="0 0 24 24" stroke="none">
    <path fill="currentColor" d="M7 2a1 1 0 0 1 1 1v1h8V3a1 1 0 1 1 2 0v1h1a2 2 0 0 1 2 2v3H3V6a2 2 0 0 1 2-2h1V3a1 1 0 0 1 1-1z" />
    <path fill="currentColor" d="M3 11h18v8a2 2 0 0 1-2 2H5a2 2 0 0 1-2-2z" />
    <rect x="7" y="14" width="2.3" height="2.3" rx=".4" fill="#ffffff" />
    <rect x="10.9" y="14" width="2.3" height="2.3" rx=".4" fill="#ffffff" />
    <rect x="14.8" y="14" width="2.3" height="2.3" rx=".4" fill="#ffffff" />
  </symbol>
  <symbol id="icon-mail-solid" viewBox="0 0 24 24" stroke="none">
    <path fill="currentColor" d="M5 4h14a2 2 0 0 1 2 2v.4l-9 5.4l-9-5.4V6a2 2 0 0 1 2-2z" />
    <path fill="currentColor" d="M3 8.6V18a2 2 0 0 0 2 2h14a2 2 0 0 0 2-2V8.6l-8.49 5.09a1 1 0 0 1-1.02 0z" />
  </symbol>
  <symbol id="icon-phone-solid" viewBox="0 0 24 24" stroke="none">
    <path d="M9.40443 5.02115L10.0482 7.01934C10.099 7.17723 10.1503 7.40219 10.1191 7.65893C10.0254 8.4276 9.51237 9.0909 8.77436 9.36766L6.08219 10.3772C4.71187 10.8911 3.25012 9.87809 3.25012 8.41459V7.306C3.25012 6.69945 3.53034 6.09966 4.05934 5.73225C5.31778 4.85823 6.72765 4.18597 8.24195 3.76283C9.43841 3.42851 10.6991 3.25 12.0002 3.25C13.3013 3.25 14.562 3.42851 15.7584 3.76282C17.2727 4.18595 18.6826 4.85822 19.941 5.73224C20.4701 6.09966 20.7503 6.69948 20.7503 7.30605L20.7502 8.41461C20.7502 9.87809 19.2885 10.8911 17.9182 10.3772L15.226 9.36766C14.488 9.0909 13.9749 8.4276 13.8813 7.65893C13.85 7.40219 13.9013 7.17723 13.9522 7.01934L14.5959 5.02114C13.7593 4.84354 12.891 4.75 12.0002 4.75C11.1094 4.75 10.2411 4.84355 9.40443 5.02115Z" fill="#343C54"/>
    <path d="M9.99277 10.5309C11.2782 9.99897 12.7221 9.99897 14.0075 10.5309L18.823 12.5235C19.4949 12.8015 19.9911 13.3872 20.1549 14.0957L21.0559 17.9932C21.3819 19.4033 20.3111 20.75 18.8638 20.75H5.13647C3.68916 20.75 2.61829 19.4033 2.9443 17.9932L3.84536 14.0957C4.00917 13.3872 4.5053 12.8015 5.17725 12.5235L9.99277 10.5309ZM9.25 15.5117C9.25 17.0305 10.4812 18.2617 12 18.2617C13.5188 18.2617 14.75 17.0305 14.75 15.5117C14.75 13.9929 13.5188 12.7617 12 12.7617C10.4812 12.7617 9.25 13.9929 9.25 15.5117Z" fill="#343C54"/>
  </symbol>
  <symbol id="icon-map-pin-solid" viewBox="0 0 24 24" stroke="none">
    <path fill="currentColor" d="M12 2a7 7 0 0 0-7 7c0 5.21 7 13 7 13s7-7.79 7-13a7 7 0 0 0-7-7z" />
    <circle cx="12" cy="9" r="2.6" fill="#ffffff" />
  </symbol>
  <symbol id="icon-home-solid" viewBox="0 0 24 24" stroke="none">
    <path fill="currentColor" d="M12 3l9 7v10a1 1 0 0 1-1 1h-5v-6h-6v6H4a1 1 0 0 1-1-1V10z" />
  </symbol>
  <symbol id="icon-briefcase-solid" viewBox="0 0 24 24" stroke="none">
    <path fill="currentColor" d="M9 3h6a2 2 0 0 1 2 2v2h2a3 3 0 0 1 3 3v2H2v-2a3 3 0 0 1 3-3h2V5a2 2 0 0 1 2-2z" />
    <path fill="currentColor" d="M2 14h20v5a3 3 0 0 1-3 3H5a3 3 0 0 1-3-3z" />
    <rect x="10.25" y="7" width="3.5" height="1.6" rx=".8" fill="#ffffff" />
  </symbol>
  <symbol id="icon-droplet-solid" viewBox="0 0 24 24" stroke="none">
    <path fill="currentColor" d="M12 2s-6 6.2-6 11a6 6 0 0 0 12 0c0-4.8-6-11-6-11z" />
  </symbol>
  <symbol id="icon-note-solid" viewBox="0 0 24 24" stroke="none">
    <path fill="currentColor" d="M6 3h12a2 2 0 0 1 2 2v14a2 2 0 0 1-2 2H6a2 2 0 0 1-2-2V5a2 2 0 0 1 2-2z" />
    <rect x="7" y="8" width="10" height="1.6" rx=".8" fill="#ffffff" />
    <rect x="7" y="11.5" width="10" height="1.6" rx=".8" fill="#ffffff" />
    <rect x="7" y="15" width="7" height="1.6" rx=".8" fill="#ffffff" />
  </symbol>

  <symbol id="icon-add" viewBox="0 0 48 48">
    <g fill="none" stroke="currentColor" stroke-linejoin="round" stroke-width="4">
      <rect width="36" height="36" x="6" y="6" rx="3" />
      <path stroke-linecap="round" d="M24 16v16m-8-8h16" />
    </g>
  </symbol>

  <symbol id="icon-add-file" viewBox="0 0 24 24">
    <g fill="none" stroke="currentColor" stroke-width="1.5" stroke-linecap="round"
      stroke-linejoin="round">
      <path d="M14 3v4a1 1 0 0 0 1 1h4" />
      <path d="M17 21h-10a2 2 0 0 1 -2 -2v-14a2 2 0 0 1 2 -2h7l5 5v11a2 2 0 0 1 -2 2z" />
      <path d="M12 11l0 6" />
      <path d="M9 14l6 0" />
    </g>
  </symbol>

  <symbol id="icon-file-search" viewBox="0 0 24 24">
    <g fill="none" stroke="currentColor" stroke-width="1.5" stroke-linecap="round"
      stroke-linejoin="round">
      <path d="M14 3v4a1 1 0 0 0 1 1h4" />
      <path d="M12 21H7a2 2 0 0 1-2-2V5a2 2 0 0 1 2-2h7l5 5v4.5" />
      <circle cx="16.5" cy="17.5" r="2.5" />
      <path d="M18.5 19.5l2.5 2.5" />
    </g>
  </symbol>

  <symbol id="icon-file-time" viewBox="0 0 24 24">
    <g fill="none" stroke="currentColor" stroke-width="1.5" stroke-linecap="round"
      stroke-linejoin="round">
      <path d="M16 4h2a2 2 0 0 1 2 2v6" />
      <path d="M8 4H6a2 2 0 0 0-2 2v14a2 2 0 0 0 2 2h6" />
      <rect x="8" y="2" width="8" height="4" rx="1" />
      <path d="M8 10h8" />
      <path d="M8 14h4" />
      <circle cx="17.5" cy="17.5" r="4.5" />
      <path d="M17.5 15v2.5l1.5 1.5" />
    </g>
  </symbol>

  <symbol id="icon-search" viewBox="0 0 24 24" fill="none" stroke="currentColor" strokeWidth="2" strokeLinecap="round" strokeLinejoin="round">
    <circle cx="11" cy="11" r="8" />
    <line x1="21" y1="21" x2="16.65" y2="16.65" />
  </symbol>

  <symbol id="icon-search-solid" viewBox="0 0 24 24" stroke="none">
    <path
      fill="currentColor"
      d="M15 9a6 6 0 0 1 4.891 9.476l2.816 2.817a1 1 0 0 1 -1.32 1.497l-.094 -.083l-2.817 -2.816a6 6 0 0 1 -9.472 -4.666l-.004 -.225l.004 -.225a6 6 0 0 1 5.996 -5.775zm0 3a1 1 0 0 0 -.993 .883l-.007 .117v1h-1l-.117 .007a1 1 0 0 0 0 1.986l.117 .007h1v1l.007 .117a1 1 0 0 0 1.986 0l.007 -.117v-1h1l.117 -.007a1 1 0 0 0 0 -1.986l-.117 -.007h-1v-1l-.007 -.117a1 1 0 0 0 -.993 -.883z"
    />
    <path
      fill="currentColor"
      d="M3 14a1 1 0 0 1 .993 .883l.007 .117v1a1 1 0 0 0 .883 .993l.117 .007h1a1 1 0 0 1 .117 1.993l-.117 .007h-1a3 3 0 0 1 -2.995 -2.824l-.005 -.176v-1a1 1 0 0 1 1 -1z"
    />
    <path
      fill="currentColor"
      d="M3 9a1 1 0 0 1 .993 .883l.007 .117v1a1 1 0 0 1 -1.993 .117l-.007 -.117v-1a1 1 0 0 1 1 -1z"
    />
    <path
      fill="currentColor"
      d="M6 2a1 1 0 0 1 .117 1.993l-.117 .007h-1a1 1 0 0 0 -.993 .883l-.007 .117v1a1 1 0 0 1 -1.993 .117l-.007 -.117v-1a3 3 0 0 1 2.824 -2.995l.176 -.005h1z"
    />
    <path
      fill="currentColor"
      d="M11 2a1 1 0 0 1 .117 1.993l-.117 .007h-1a1 1 0 0 1 -.117 -1.993l.117 -.007h1z"
    />
    <path
      fill="currentColor"
      d="M16 2a3 3 0 0 1 2.995 2.824l.005 .176v1a1 1 0 0 1 -1.993 .117l-.007 -.117v-1a1 1 0 0 0 -.883 -.993l-.117 -.007h-1a1 1 0 0 1 -.117 -1.993l.117 -.007h1z"
    />
  </symbol>

  <symbol id="icon-open-folder" viewBox="0 0 24 24">
    <path
      fill="currentColor"
      d="M9 3a1 1 0 0 1 .608 .206l.1 .087l2.706 2.707h6.586a3 3 0 0 1 2.995 2.824l.005 .176v8a3 3 0 0 1 -2.824 2.995l-.176 .005h-14a3 3 0 0 1 -2.995 -2.824l-.005 -.176v-11a3 3 0 0 1 2.824 -2.995l.176 -.005h4z"
    />
  </symbol>

  <symbol id="icon-add-folder" viewBox="0 0 24 24">
    <path
      fill="currentColor"
      fill-rule="evenodd"
      clip-rule="evenodd"
      d="M6 22h12a2 2 0 0 0 2-2V8l-6-6H6a2 2 0 0 0-2 2v16a2 2 0 0 0 2 2m7-18l5 5h-5zM10 9h4v3h3v4h-3v3h-4v-3H7v-4h3z"
    />
  </symbol>

  <symbol id="icon-search-folder" viewBox="0 0 24 24">
    <g fill="none" stroke="currentColor" stroke-width="1.5" stroke-linecap="round"
      stroke-linejoin="round">
      <path d="M11 19h-6a2 2 0 0 1 -2 -2v-11a2 2 0 0 1 2 -2h4l3 3h7a2 2 0 0 1 2 2v2.5" />
      <path d="M18 18m-3 0a3 3 0 1 0 6 0a3 3 0 1 0 -6 0" />
      <path d="M20.2 20.2l1.8 1.8" />
    </g>
  </symbol>

  <symbol id="icon-arrow-right" viewBox="0 0 24 24" fill="none" stroke="currentColor" strokeWidth="2" strokeLinecap="round" strokeLinejoin="round">
    <line x1="5" y1="12" x2="19" y2="12" />
    <polyline points="12 5 19 12 12 19" />
  </symbol>

  <symbol id="icon-arrow-left" viewBox="0 0 24 24">
    <path fill="currentColor" d="M20 11v2H8l5.5 5.5l-1.42 1.42L4.16 12l7.92-7.92L13.5 5.5L8 11z" />
  </symbol>

  <symbol id="icon-table" viewBox="0 0 24 24" stroke="none">
    <path fill="currentColor" d="M9 3a2 2 0 0 1 2 2v4a2 2 0 0 1 -2 2h-4a2 2 0 0 1 -2 -2v-4a2 2 0 0 1 2 -2z" />
    <path fill="currentColor" d="M19 3a2 2 0 0 1 2 2v4a2 2 0 0 1 -2 2h-4a2 2 0 0 1 -2 -2v-4a2 2 0 0 1 2 -2z" />
    <path fill="currentColor" d="M9 13a2 2 0 0 1 2 2v4a2 2 0 0 1 -2 2h-4a2 2 0 0 1 -2 -2v-4a2 2 0 0 1 2 -2z" />
    <path fill="currentColor" d="M19 13a2 2 0 0 1 2 2v4a2 2 0 0 1 -2 2h-4a2 2 0 0 1 -2 -2v-4a2 2 0 0 1 2 -2z" />
  </symbol>
  <symbol id="icon-table-solid" viewBox="0 0 24 24" stroke="none">
    <path fill="currentColor" d="M9 3a2 2 0 0 1 2 2v4a2 2 0 0 1 -2 2h-4a2 2 0 0 1 -2 -2v-4a2 2 0 0 1 2 -2z" />
    <path fill="currentColor" d="M19 3a2 2 0 0 1 2 2v4a2 2 0 0 1 -2 2h-4a2 2 0 0 1 -2 -2v-4a2 2 0 0 1 2 -2z" />
    <path fill="currentColor" d="M9 13a2 2 0 0 1 2 2v4a2 2 0 0 1 -2 2h-4a2 2 0 0 1 -2 -2v-4a2 2 0 0 1 2 -2z" />
    <path fill="currentColor" d="M19 13a2 2 0 0 1 2 2v4a2 2 0 0 1 -2 2h-4a2 2 0 0 1 -2 -2v-4a2 2 0 0 1 2 -2z" />
  </symbol>

  <symbol id="icon-card" viewBox="0 0 24 24" stroke="none">
    <path fill="currentColor" d="M10.348 3.169l-7.15 3.113a2 2 0 0 0 -1.03 2.608l4.92 11.895a1.96 1.96 0 0 0 2.59 1.063l7.142 -3.11a2.002 2.002 0 0 0 1.036 -2.611l-4.92 -11.894a1.96 1.96 0 0 0 -2.588 -1.064z" />
    <path fill="currentColor" d="M16 3a2 2 0 0 1 1.995 1.85l.005 .15v3.5a1 1 0 0 1 -1.993 .117l-.007 -.117v-3.5h-1a1 1 0 0 1 -.117 -1.993l.117 -.007h1z" />
    <path fill="currentColor" d="M19.08 5.61a1 1 0 0 1 1.31 -.53c.257 .108 .505 .21 .769 .314a2 2 0 0 1 1.114 2.479l-.056 .146l-2.298 5.374a1 1 0 0 1 -1.878 -.676l.04 -.11l2.296 -5.371l-.366 -.148l-.402 -.167a1 1 0 0 1 -.53 -1.312z" />
  </symbol>
  <symbol id="icon-card-solid" viewBox="0 0 24 24" stroke="none">
    <path fill="currentColor" d="M10.348 3.169l-7.15 3.113a2 2 0 0 0 -1.03 2.608l4.92 11.895a1.96 1.96 0 0 0 2.59 1.063l7.142 -3.11a2.002 2.002 0 0 0 1.036 -2.611l-4.92 -11.894a1.96 1.96 0 0 0 -2.588 -1.064z" />
    <path fill="currentColor" d="M16 3a2 2 0 0 1 1.995 1.85l.005 .15v3.5a1 1 0 0 1 -1.993 .117l-.007 -.117v-3.5h-1a1 1 0 0 1 -.117 -1.993l.117 -.007h1z" />
    <path fill="currentColor" d="M19.08 5.61a1 1 0 0 1 1.31 -.53c.257 .108 .505 .21 .769 .314a2 2 0 0 1 1.114 2.479l-.056 .146l-2.298 5.374a1 1 0 0 1 -1.878 -.676l.04 -.11l2.296 -5.371l-.366 -.148l-.402 -.167a1 1 0 0 1 -.53 -1.312z" />
  </symbol>

  <symbol id="icon-sun" viewBox="0 0 24 24">
    <circle cx="12" cy="12" r="5"/>
    <line x1="12" y1="1" x2="12" y2="3"/>
    <line x1="12" y1="21" x2="12" y2="23"/>
    <line x1="4.22" y1="4.22" x2="5.64" y2="5.64"/>
    <line x1="18.36" y1="18.36" x2="19.78" y2="19.78"/>
    <line x1="1" y1="12" x2="3" y2="12"/>
    <line x1="21" y1="12" x2="23" y2="12"/>
    <line x1="4.22" y1="19.78" x2="5.64" y2="18.36"/>
    <line x1="18.36" y1="5.64" x2="19.78" y2="4.22"/>
  </symbol>

  <symbol id="icon-moon" viewBox="0 0 24 24">
    <path d="M21 12.79A9 9 0 1 1 11.21 3 7 7 0 0 0 21 12.79z"/>
  </symbol>

  <symbol id="icon-calendar" viewBox="0 0 24 24">
    <g fill="none" stroke="currentColor" stroke-width="1.5" stroke-linecap="round"
      stroke-linejoin="round">
      <path d="M11.5 21h-5.5a2 2 0 0 1 -2 -2v-12a2 2 0 0 1 2 -2h12a2 2 0 0 1 2 2v4.5" />
      <path d="M16 3v4" />
      <path d="M8 3v4" />
      <path d="M4 11h16" />
      <path d="M18 18m-3 0a3 3 0 1 0 6 0a3 3 0 1 0 -6 0" />
      <path d="M20.2 20.2l1.8 1.8" />
    </g>
  </symbol>

  <symbol id="icon-calendar-user" viewBox="0 0 24 24">
    <path fill="none" stroke="currentColor" stroke-linecap="round" stroke-linejoin="round"
      stroke-width="1.5"
      d="M12 21H6a2 2 0 0 1-2-2V7a2 2 0 0 1 2-2h12a2 2 0 0 1 2 2v4.5M16 3v4M8 3v4m-4 4h16m-3 6a2 2 0 1 0 4 0a2 2 0 1 0-4 0m5 5a2 2 0 0 0-2-2h-2a2 2 0 0 0-2 2" />
  </symbol>

  <symbol id="icon-calendar-time" viewBox="0 0 24 24">
    <g fill="none" stroke="currentColor" stroke-linecap="round" stroke-linejoin="round"
      stroke-width="1.5">
      <path d="M11.795 21H5a2 2 0 0 1-2-2V7a2 2 0 0 1 2-2h12a2 2 0 0 1 2 2v4" />
      <path d="M14 18a4 4 0 1 0 8 0a4 4 0 1 0-8 0m1-15v4M7 3v4m-4 4h16" />
      <path d="M18 16.496V18l1 1" />
    </g>
  </symbol>

  <symbol id="icon-edit" viewBox="0 0 80 80">
    <path fill="currentColor" fill-rule="evenodd"
      d="M15 23.742h23.4a3 3 0 0 0 0-6H14a5 5 0 0 0-5 5v44a5 5 0 0 0 5 5h44a5 5 0 0 0 5-5v-24.4a3 3 0 0 0-6 0v23.4H15zm51.954-.784a3.497 3.497 0 0 0 0-4.945l-3.536-3.536a3.503 3.503 0 0 0-4.954 0L30.7 42.242a16 16 0 0 0-4.555 9.266l-.433 3.358a.758.758 0 0 0 .848.849l3.359-.433a16 16 0 0 0 9.266-4.555zm-8.449 8.448l-8.48-8.48l4.242-4.244l8.48 8.481z"
      clip-rule="evenodd" />
  </symbol>

  <symbol id="icon-archive" viewBox="0 0 20 20">
    <path fill="currentColor" fill-rule="evenodd"
      d="M5 9V7a5 5 0 0 1 10 0v2a2 2 0 0 1 2 2v5a2 2 0 0 1-2 2H5a2 2 0 0 1-2-2v-5a2 2 0 0 1 2-2m8-2v2H7V7a3 3 0 0 1 6 0"
      clip-rule="evenodd" />
  </symbol>

  <symbol id="icon-unarchive" viewBox="0 0 24 24">
    <path fill="currentColor"
      d="m13.815 14.632l-4.031 4.031H7.115v2.668H4.447v2.668H0v-4.447l9.368-9.368a7.4 7.4 0 0 1-.474-2.632a7.554 7.554 0 1 1 4.869 7.062zm7.532-9.31v-.003a2.668 2.668 0 1 0-2.669 2.668h.001a2.67 2.67 0 0 0 2.668-2.665" />
  </symbol>

  <symbol id="icon-card-info" viewBox="0 0 448 512" stroke="none">
    <path fill="currentColor"
      d="M96 128a128 128 0 1 0 256 0a128 128 0 1 0-256 0m94.5 200.2l18.6 31l-33.3 123.9l-36-146.9c-2-8.1-9.8-13.4-17.9-11.3C51.9 342.4 0 405.8 0 481.3c0 17 13.8 30.7 30.7 30.7h386.6c17 0 30.7-13.8 30.7-30.7c0-75.5-51.9-138.9-121.9-156.4c-8.1-2-15.9 3.3-17.9 11.3l-36 146.9l-33.3-123.9l18.6-31c6.4-10.7-1.3-24.2-13.7-24.2h-39.5c-12.4 0-20.1 13.6-13.7 24.2z" />
  </symbol>

  <symbol id="icon-settings" viewBox="0 0 24 24">
    <path fill="currentColor"
      d="M15 9H5V5h10m-3 14a3 3 0 0 1-3-3a3 3 0 0 1 3-3a3 3 0 0 1 3 3a3 3 0 0 1-3 3m5-16H5a2 2 0 0 0-2 2v14a2 2 0 0 0 2 2h14a2 2 0 0 0 2-2V7z" />
  </symbol>
  <symbol id="icon-settings-cog-solid" viewBox="0 0 90 90" stroke="none">
    <path fill="currentColor"
      d="M85.479 54.663c-3.419-1.974-5.528-5.62-5.533-9.568l0-.201c-.005-3.933 2.091-7.569 5.497-9.535l.037-.021c2.445-1.412 3.283-4.538 1.871-6.983l-6.759-11.707c-.947-1.64-2.665-2.557-4.432-2.557c-.867 0-1.746.221-2.551.686l-.014.008c-1.706.985-3.609 1.477-5.512 1.477c-1.912 0-3.825-.497-5.536-1.491l-.6-.349c-3.142-1.825-5.075-5.183-5.075-8.816V5.112C56.871 2.289 54.582 0 51.759 0H38.241c-2.823 0-5.112 2.289-5.112 5.112v.493c0 3.633-1.935 6.992-5.078 8.815l-1.016.589c-1.583.918-3.351 1.377-5.119 1.377c-1.762 0-3.523-.456-5.102-1.367l-.422-.244c-.805-.465-1.684-.686-2.551-.686c-1.767 0-3.485.917-4.432 2.557L2.649 28.353c-1.412 2.445-.574 5.572 1.871 6.983c3.419 1.974 5.528 5.62 5.533 9.568l0 .201c.005 3.933-2.091 7.569-5.497 9.536l-.037.021c-2.445 1.412-3.283 4.538-1.871 6.983l6.759 11.707c.947 1.64 2.665 2.557 4.432 2.557c.867 0 1.746-.221 2.551-.686l.014-.008c1.705-.985 3.609-1.477 5.512-1.477c1.912 0 3.824.497 5.536 1.491l.6.349c3.142 1.825 5.075 5.183 5.075 8.816v.492c0 2.823 2.289 5.112 5.112 5.112h13.518c2.823 0 5.112-2.289 5.112-5.112v-.493c0-3.633 1.935-6.992 5.078-8.815l1.016-.589c1.583-.918 3.351-1.377 5.119-1.377c1.762 0 3.523.456 5.102 1.367l.422.244c.805.465 1.684.686 2.551.686c1.767 0 3.485-.917 4.432-2.557l6.759-11.707c1.412-2.445.575-5.571-1.871-6.983zM45 59.538c-8.016 0-14.538-6.521-14.538-14.538c0-8.016 6.522-14.538 14.538-14.538c8.017 0 14.538 6.522 14.538 14.538c0 8.017-6.521 14.538-14.538 14.538z" />
  </symbol>

  <symbol id="icon-building" viewBox="0 0 448 512">
    <path fill="currentColor"
      d="M128 244v-40c0-6.627 5.373-12 12-12h40c6.627 0 12 5.373 12 12v40c0 6.627-5.373 12-12 12h-40c-6.627 0-12-5.373-12-12m140 12h40c6.627 0 12-5.373 12-12v-40c0-6.627-5.373-12-12-12h-40c-6.627 0-12 5.373-12 12v40c0 6.627 5.373 12 12 12m-76 84v-40c0-6.627-5.373-12-12-12h-40c-6.627 0-12 5.373-12 12v40c0 6.627 5.373 12 12 12h40c6.627 0 12-5.373 12-12m76 12h40c6.627 0 12-5.373 12-12v-40c0-6.627-5.373-12-12-12h-40c-6.627 0-12 5.373-12 12v40c0 6.627 5.373 12 12 12m180 124v36H0v-36c0-6.627 5.373-12 12-12h19.5V85.035C31.5 73.418 42.245 64 55.5 64H144V24c0-13.255 10.745-24 24-24h112c13.255 0 24 10.745 24 24v40h88.5c13.255 0 24 9.418 24 21.035V464H436c6.627 0 12 5.373 12 12M79.5 463H192v-67c0-6.627 5.373-12 12-12h40c6.627 0 12 5.373 12 12v67h112.5V112H304v24c0 13.255-10.745 24-24 24H168c-13.255 0-24-10.745-24-24v-24H79.5zM266 64h-26V38a6 6 0 0 0-6-6h-20a6 6 0 0 0-6 6v26h-26a6 6 0 0 0-6 6v20a6 6 0 0 0 6 6h26v26a6 6 0 0 0 6 6h20a6 6 0 0 0 6-6V96h26a6 6 0 0 0 6-6V70a6 6 0 0 0-6-6" />
  </symbol>

  <symbol id="icon-medical-center" viewBox="0 0 24 24">
    <g fill="none" stroke="currentColor" stroke-linecap="round" stroke-linejoin="round"
      stroke-width="1.5">
      <path
        d="M1.5.75v22.5M6 6.75H1.5M6 17.25H1.5m17.25-7.5H16.5V7.5a.75.75 0 0 0-.75-.75h-3a.75.75 0 0 0-.75.75v2.25H9.75a.75.75 0 0 0-.75.75v3a.75.75 0 0 0 .75.75H12v2.25a.75.75 0 0 0 .75.75h3a.75.75 0 0 0 .75-.75v-2.25h2.25a.75.75 0 0 0 .75-.75v-3a.75.75 0 0 0-.75-.75" />
      <path d="M7 3.75h14.5s1 0 1 1v14.5s0 1-1 1H7s-1 0-1-1V4.75s0-1 1-1" />
    </g>
  </symbol>

  <symbol id="icon-code" viewBox="0 0 2048 2048">
    <path fill="currentColor"
      d="M1024 1280H640v-75q0-38 14-73q11-28 33-54t50-53t55-50t51-49t38-47t15-47q0-26-19-45t-45-19q-23 0-40 14t-23 37l-125-26q6-33 23-61t44-48t57-32t64-12q40 0 75 15t61 41t41 61t15 75q0 39-11 70t-31 58t-44 51t-51 46t-51 46t-47 49h235zM2048 256v1408H0V256zm-128 128H128v1152h1792zM397 787q-29 17-68 31t-73 14V704q11 0 31-6t40-15t36-21t22-22h127v640H397zm923 493q-42 0-81-14t-75-37v-127q20 15 35 26t32 18t34 10t45 3q22 0 42-4t35-15t25-28t9-42q0-31-24-44t-56-18t-65-3t-53 2v-97h58q31 0 58-7t45-26t18-57q0-42-25-56t-64-14q-40 0-69 18t-58 43V681q34-23 76-32t82-9q36 0 70 10t60 29t43 49t16 69q0 48-19 85t-62 61q44 15 72 53t28 85t-20 84t-52 62t-75 39t-85 14" />
  </symbol>

  <symbol id="icon-map-pin" viewBox="0 0 384 512" stroke="none">
    <path fill="currentColor"
      d="M215.7 499.2C267 435 384 279.4 384 192C384 86 298 0 192 0S0 86 0 192c0 87.4 117 243 168.3 307.2c12.3 15.3 35.1 15.3 47.4 0M192 128a64 64 0 1 1 0 128a64 64 0 1 1 0-128" />
  </symbol>

  <symbol id="icon-clip" viewBox="0 0 24 24">
    <path fill="none" stroke="currentColor" stroke-width="1" stroke-linecap="round" stroke-linejoin="round"
      d="M15 7l-6.5 6.5a1.5 1.5 0 0 0 3 3l6.5 -6.5a3 3 0 0 0 -6 -6l-6.5 6.5a4.5 4.5 0 0 0 9 9l6.5 -6.5" />
  </symbol>

  <symbol id="icon-filters" viewBox="0 0 24 24">
    <path fill="currentColor" d="M20 3h-16a1 1 0 0 0 -1 1v2.227l.008 .223a3 3 0 0 0 .772 1.795l4.22 4.641v8.114a1 1 0 0 0 1.316 .949l6 -2l.108 -.043a1 1 0 0 0 .576 -.906v-6.586l4.121 -4.12a3 3 0 0 0 .879 -2.123v-2.171a1 1 0 0 0 -1 -1z" />
  </symbol>

  <symbol id="icon-logout" viewBox="0 0 24 24" fill="none" stroke="currentColor" strokeWidth="2" strokeLinecap="round" strokeLinejoin="round">
    <path d="M9 21H5a2 2 0 0 1-2-2V5a2 2 0 0 1 2-2h4" />
    <polyline points="16 17 21 12 16 7" />
    <line x1="21" y1="12" x2="9" y2="12" />
  </symbol>

  <symbol id="icon-filters-solid" viewBox="0 0 24 24">
    <path d="M6 3a1 1 0 0 1 .993 .883l.007 .117v3.171a3.001 3.001 0 0 1 0 5.658v7.171a1 1 0 0 1 -1.993 .117l-.007 -.117v-7.17a3.002 3.002 0 0 1 -1.995 -2.654l-.005 -.176l.005 -.176a3.002 3.002 0 0 1 1.995 -2.654v-3.17a1 1 0 0 1 1 -1z" fill="currentColor" />
    <path d="M12 3a1 1 0 0 1 .993 .883l.007 .117v9.171a3.001 3.001 0 0 1 0 5.658v1.171a1 1 0 0 1 -1.993 .117l-.007 -.117v-1.17a3.002 3.002 0 0 1 -1.995 -2.654l-.005 -.176l.005 -.176a3.002 3.002 0 0 1 1.995 -2.654v-9.17a1 1 0 0 1 1 -1z" fill="currentColor" />
    <path d="M18 3a1 1 0 0 1 .993 .883l.007 .117v.171a3.001 3.001 0 0 1 0 5.658v10.171a1 1 0 0 1 -1.993 .117l-.007 -.117v-10.17a3.002 3.002 0 0 1 -1.995 -2.654l-.005 -.176l.005 -.176a3.002 3.002 0 0 1 1.995 -2.654v-.17a1 1 0 0 1 1 -1z" fill="currentColor" />
  </symbol>

  <symbol id="icon-cloud-close-solid" viewBox="0 0 90 90" stroke="none">
    <path fill="currentColor"
      d="M72.281 36.157C69.605 23.382 58.297 14.038 45 14.038c-13.296 0-24.604 9.345-27.281 22.119C7.764 37.276 0 45.747 0 55.997c0 11.009 8.957 19.966 19.966 19.966h50.068C81.043 75.963 90 67.006 90 55.997C90 45.747 82.236 37.276 72.281 36.157zM57.334 59.101c1.172 1.171 1.172 3.071 0 4.242c-.586.586-1.354.879-2.121.879s-1.535-.293-2.121-.879L45 55.251l-8.092 8.092c-.585.586-1.354.879-2.121.879s-1.536-.293-2.121-.879c-1.172-1.171-1.172-3.071 0-4.242l8.092-8.092l-8.092-8.092c-1.172-1.171-1.172-3.071 0-4.242c1.171-1.172 3.071-1.172 4.242 0L45 46.767l8.092-8.092c1.172-1.172 3.07-1.172 4.242 0c1.172 1.171 1.172 3.071 0 4.242l-8.092 8.092L57.334 59.101z" />
  </symbol>

  <symbol id="icon-restore" viewBox="0 0 512 512">
    <path fill="currentColor" fill-rule="evenodd"
      d="M256 448c-97.974 0-178.808-73.383-190.537-168.183l42.341-5.293c9.123 73.734 71.994 130.809 148.196 130.809c82.475 0 149.333-66.858 149.333-149.333S338.475 106.667 256 106.667c-50.747 0-95.581 25.312-122.567 64h79.9v42.666H64V64h42.667v71.31C141.866 91.812 195.685 64 256 64c106.039 0 192 85.961 192 192s-85.961 192-192 192"
      clip-rule="evenodd" />
  </symbol>

<symbol id="icon-generate-pdf" viewBox="0 0 24 24">
	<g fill="none" stroke="currentColor" stroke-width="1.5" stroke-linecap="round" stroke-linejoin="round">
		<path d="M14 3v4a1 1 0 0 0 1 1h4" />
		<path d="M5 12V5a2 2 0 0 1 2-2h7l5 5v4" />
		<path d="M5 18h1.5a1.5 1.5 0 0 0 0-3H5v6" />
		<path d="M11 15v6h1a2 2 0 0 0 2-2v-2a2 2 0 0 0-2-2h-1z" />
		<path d="M17 18h2" />
		<path d="M20 15h-3v6" />
	</g>
</symbol>

  <symbol id="icon-hospital-user" viewBox="0 0 640 512">
    <path fill="currentColor"
      d="M480 320a96 96 0 1 0-96-96a96 96 0 0 0 96 96m48 32a22.9 22.9 0 0 0-7.06 1.09a124.76 124.76 0 0 1-81.89 0A22.8 22.8 0 0 0 432 352a112 112 0 0 0-112 112.62c.14 26.26 21.73 47.38 48 47.38h224c26.27 0 47.86-21.12 48-47.38A112 112 0 0 0 528 352m-198.09 10.45A145 145 0 0 1 352 344.62V128a32 32 0 0 0-32-32h-32V32a32 32 0 0 0-32-32H96a32 32 0 0 0-32 32v64H32a32 32 0 0 0-32 32v368a16 16 0 0 0 16 16h288.31A78.62 78.62 0 0 1 288 464.79a143.06 143.06 0 0 1 41.91-102.34M144 404a12 12 0 0 1-12 12H92a12 12 0 0 1-12-12v-40a12 12 0 0 1 12-12h40a12 12 0 0 1 12 12zm0-128a12 12 0 0 1-12 12H92a12 12 0 0 1-12-12v-40a12 12 0 0 1 12-12h40a12 12 0 0 1 12 12zm48-122a6 6 0 0 1-6 6h-20a6 6 0 0 1-6-6v-26h-26a6 6 0 0 1-6-6v-20a6 6 0 0 1 6-6h26V70a6 6 0 0 1 6-6h20a6 6 0 0 1 6 6v26h26a6 6 0 0 1 6 6v20a6 6 0 0 1-6 6h-26zm80 250a12 12 0 0 1-12 12h-40a12 12 0 0 1-12-12v-40a12 12 0 0 1 12-12h40a12 12 0 0 1 12 12zm0-128a12 12 0 0 1-12 12h-40a12 12 0 0 1-12-12v-40a12 12 0 0 1 12-12h40a12 12 0 0 1 12 12z" />
  </symbol>

  <symbol id="icon-patient-list" viewBox="0 0 24 24">
    <path fill="currentColor"
      d="M14.289 12.966q-.655-.65-.655-1.577t.65-1.581t1.577-.654t1.581.65t.654 1.576t-.65 1.582t-1.576.654t-1.581-.65m-3.654 5.88v-1.13q0-.327.163-.622t.44-.475q1.049-.598 2.196-.916t2.432-.318q1.284 0 2.431.318t2.195.916q.277.179.44.475t.164.622v1.13zM3.885 13.5v-1h7v1zm0-8v-1h11v1zm7.811 4H3.885v-1h8.384q-.177.233-.322.473t-.25.527" />
  </symbol>

  <symbol id="icon-ecg-heart" viewBox="0 0 512 512">
    <path fill="currentColor"
      d="M228.3 469.1L47.6 300.4c-4.2-3.9-8.2-8.1-11.9-12.4h87c22.6 0 43-13.6 51.7-34.5l10.5-25.2l49.3 109.5c3.8 8.5 12.1 14 21.4 14.1s17.8-5 22-13.3l42.4-84.9l1.7 3.4c9.5 19 28.9 31 50.1 31h104.5c-3.7 4.3-7.7 8.5-11.9 12.4L283.7 469.1c-7.5 7-17.4 10.9-27.7 10.9s-20.2-3.9-27.7-10.9M503.7 240h-132c-3 0-5.8-1.7-7.2-4.4l-23.2-46.3c-4.1-8.1-12.4-13.3-21.5-13.3s-17.4 5.1-21.5 13.3l-41.4 82.8l-51-113.9c-3.9-8.7-12.7-14.3-22.2-14.1s-18.1 5.9-21.8 14.8l-31.8 76.3c-1.2 3-4.2 4.9-7.4 4.9L16 240c-2.6 0-5 .4-7.3 1.1C3 225.2 0 208.2 0 190.9v-5.8c0-69.9 50.5-129.5 119.4-141c45.6-7.6 92 7.3 124.6 39.9l12 12l12-12c32.6-32.6 79-47.5 124.6-39.9c68.9 11.5 119.4 71.1 119.4 141v5.8c0 16.9-2.8 33.5-8.3 49.1" />
  </symbol>

  <symbol id="icon-user-search" viewBox="0 0 24 24">
    <!-- Usuario (Relleno sólido) -->
    <g fill="currentColor">
      <!-- Cabeza -->
      <circle cx="8" cy="7" r="4" />
      <!-- Cuerpo (hombros con recorte a la derecha para dar aire a la lupa) -->
      <path
        d="M8 14c-4.42 0-8 1.79-8 4v3h11.2c-.1-.6-.2-1.3-.2-2 0-1.6.5-3.1 1.4-4.3C10.6 14.3 9.3 14 8 14z" />
    </g>

    <!-- Lupa (Borde nítido, manteniendo la consistencia con tus otros íconos de búsqueda) -->
    <g fill="none" stroke="currentColor" stroke-width="1.5" stroke-linecap="round">
      <circle cx="17" cy="16" r="3.5" />
      <path d="M19.5 18.5l3 3" />
    </g>
  </symbol>

  <symbol id="icon-diagnostic-medical" viewBox="0 0 640 640">
    <path fill="currentColor"
      d="M272 88c0-13.3 10.7-24 24-24h48c13.3 0 24 10.7 24 24v56h56c13.3 0 24 10.7 24 24v48c0 13.3-10.7 24-24 24h-56v56c0 13.3-10.7 24-24 24h-48c-13.3 0-24-10.7-24-24v-56h-56c-13.3 0-24-10.7-24-24v-48c0-13.3 10.7-24 24-24h56zM98.7 448l42.5-42.5c24-24 56.6-37.5 90.5-37.5H384c17.7 0 32 14.3 32 32s-14.3 32-32 32h-72c-13.3 0-24 10.7-24 24s10.7 24 24 24h112.6l119.7-88.2c17.8-13.1 42.8-9.3 55.9 8.5s9.3 42.8-8.5 55.9l-126.6 93.3c-23.4 17.2-51.6 26.5-80.7 26.5H64c-17.7 0-32-14.3-32-32v-64c0-17.7 14.3-32 32-32z" />
  </symbol>

  <symbol id="icon-house-medical" viewBox="0 0 640 640">
    <path fill="currentColor"
      d="M298.2 72.6c12.3-11.4 31.3-11.4 43.5 0l90.3 83.7V144c0-17.7 14.3-32 32-32h32c17.7 0 32 14.3 32 32v101.5l37.8 35.1c9.6 9 12.8 22.9 8 35.1S557.2 336 544 336h-16v176c0 35.3-28.7 64-64 64H176c-35.3 0-64-28.7-64-64V336H96c-13.2 0-25-8.1-29.8-20.3s-1.6-26.2 8-35.1zM288 312v40h-40c-8.8 0-16 7.2-16 16v32c0 8.8 7.2 16 16 16h40v40c0 8.8 7.2 16 16 16h32c8.8 0 16-7.2 16-16v-40h40c8.8 0 16-7.2 16-16v-32c0-8.8-7.2-16-16-16h-40v-40c0-8.8-7.2-16-16-16h-32c-8.8 0-16 7.2-16 16" />
  </symbol>

  <symbol id="icon-mother-nurse" viewBox="0 0 64 64">
    <path fill="currentColor"
      d="M41.144 9.231a8.858 8.858 0 1 1-17.716 0a8.858 8.858 0 0 1 17.716 0m-8.873 27.373h-9.364v-6.76l-7.16 7.208c-3.235 3.236-7.621-.912-4.38-4.153l11.856-11.88c.962-.955 2.015-1.563 3.685-1.563h10.633c1.67 0 2.798.589 3.787 1.563l11.976 11.996c3.085 3.084-1.417 7.272-4.378 4.156l-7.348-7.365v6.797l-9.308.001zm9.268 3.507l-7.037 7.039l5.165 5.156l-5.293 5.294c-3.126 3.125 1.186 7.593 4.416 4.361l8.373-8.705c1.796-1.833 2.293-5.219.367-7.145c-.006-.008-5.992-6-5.992-6zm-18.63 0l7.038 7.039l-5.165 5.156l5.293 5.294c3.125 3.125-1.185 7.593-4.416 4.361l-8.372-8.704c-1.798-1.833-2.294-5.219-.367-7.145c.005-.009 5.991-6.001 5.991-6.001z" />
  </symbol>

  <symbol id="icon-pin" viewBox="0 0 24 24">
	<path fill="none" stroke="currentColor" stroke-linecap="round" stroke-linejoin="round" stroke-width="2" d="M12 17v5M9 10.76a2 2 0 0 1-1.11 1.79l-1.78.9A2 2 0 0 0 5 15.24V16a1 1 0 0 0 1 1h12a1 1 0 0 0 1-1v-.76a2 2 0 0 0-1.11-1.79l-1.78-.9A2 2 0 0 1 15 10.76V7a1 1 0 0 1 1-1a2 2 0 0 0 0-4H8a2 2 0 0 0 0 4a1 1 0 0 1 1 1z" />
</symbol>

  <symbol id="icon-pin-off" viewBox="0 0 24 24">
    <path fill="none" stroke="currentColor" stroke-linecap="round" stroke-linejoin="round"
      stroke-width="2"
      d="M12 17v5m3-12.66V7a1 1 0 0 1 1-1a2 2 0 0 0 0-4H7.89M2 2l20 20M9 9v1.76a2 2 0 0 1-1.11 1.79l-1.78.9A2 2 0 0 0 5 15.24V16a1 1 0 0 0 1 1h11" />
  </symbol>
  <symbol id="icon-email-solid" viewBox="0 0 24 24" stroke="none">
    <path fill="currentColor" stroke="none"
      d="M1.5 8.755V18a2.25 2.25 0 0 0 2.25 2.25h16.5A2.25 2.25 0 0 0 22.5 18V8.755l-9.512 5.531a.75.75 0 0 1-.976 0L1.5 8.755z" />
    <path fill="currentColor" stroke="none"
      d="M22.5 7.191l-9.75 5.669L1.5 7.191V6a2.25 2.25 0 0 1 2.25-2.25h13.5A2.25 2.25 0 0 1 22.5 6v1.191z" />
  </symbol>

  <symbol id="icon-phone-solid" viewBox="0 0 24 24" stroke="none">
    <path fill="currentColor" stroke="none" fill-rule="evenodd" clip-rule="evenodd"
      d="M1.5 4.5a3 3 0 0 1 3-3h1.372c.86 0 1.61.586 1.819 1.42l1.105 4.423a1.875 1.875 0 0 1-.694 1.955l-1.293.97c-.135.101-.164.249-.126.352a11.285 11.285 0 0 0 6.697 6.697c.103.038.25.009.352-.126l.97-1.293a1.875 1.875 0 0 1 1.955-.694l4.423 1.105c.834.209 1.42.959 1.42 1.82V19.5a3 3 0 0 1-3 3h-2.25C8.552 22.5 1.5 15.448 1.5 6.75V4.5z" />
  </symbol>

  <symbol id="icon-location-solid" viewBox="0 0 24 24" stroke="none">
    <path fill="currentColor" stroke="none" fill-rule="evenodd" clip-rule="evenodd"
      d="M11.54 22.351l.07.04l.028.016a.76.76 0 0 0 .723 0l.028-.015l.071-.041a16.975 16.975 0 0 0 1.144-.742a19.58 19.58 0 0 0 2.683-2.282c1.944-2.083 3.546-5.097 3.082-8.72a8.55 8.55 0 0 0-8.374-7.573a8.55 8.55 0 0 0-8.374 7.573c-.464 3.623 1.138 6.637 3.082 8.72a19.579 19.579 0 0 0 2.683 2.282a16.974 16.974 0 0 0 1.144.742zM12 13.5a3 3 0 1 0 0-6a3 3 0 0 0 0 6z" />
  </symbol>
</svg>
