<svg style="display: none;" xmlns="http://www.w3.org/2000/svg">
  <symbol id="icon-dashboard" viewBox="0 0 24 24" stroke="none">
    <path fill="currentColor" stroke="none" fill-rule="evenodd" clip-rule="evenodd"
      d="M3 6C3 4.34315 4.34315 3 6 3H8.25C9.90685 3 11.25 4.34315 11.25 6V8.25C11.25 9.90685 9.90685 11.25 8.25 11.25H6C4.34315 11.25 3 9.90685 3 8.25V6ZM12.75 6C12.75 4.34315 14.0931 3 15.75 3H18C19.6569 3 21 4.34315 21 6V8.25C21 9.90685 19.6569 11.25 18 11.25H15.75C14.0931 11.25 12.75 9.90685 12.75 8.25V6ZM3 15.75C3 14.0931 4.34315 12.75 6 12.75H8.25C9.90685 12.75 11.25 14.0931 11.25 15.75V18C11.25 19.6569 9.90685 21 8.25 21H6C4.34315 21 3 19.6569 3 18V15.75ZM12.75 15.75C12.75 14.0931 14.0931 12.75 15.75 12.75H18C19.6569 12.75 21 14.0931 21 15.75V18C21 19.6569 19.6569 21 18 21H15.75C14.0931 21 12.75 19.6569 12.75 18V15.75Z" />
  </symbol>
  <symbol id="icon-dashboard-solid" viewBox="0 0 24 24" stroke="none">
    <path fill="currentColor" stroke="none" fill-rule="evenodd" clip-rule="evenodd"
      d="M3 6C3 4.34315 4.34315 3 6 3H8.25C9.90685 3 11.25 4.34315 11.25 6V8.25C11.25 9.90685 9.90685 11.25 8.25 11.25H6C4.34315 11.25 3 9.90685 3 8.25V6ZM12.75 6C12.75 4.34315 14.0931 3 15.75 3H18C19.6569 3 21 4.34315 21 6V8.25C21 9.90685 19.6569 11.25 18 11.25H15.75C14.0931 11.25 12.75 9.90685 12.75 8.25V6ZM3 15.75C3 14.0931 4.34315 12.75 6 12.75H8.25C9.90685 12.75 11.25 14.0931 11.25 15.75V18C11.25 19.6569 9.90685 21 8.25 21H6C4.34315 21 3 19.6569 3 18V15.75ZM12.75 15.75C12.75 14.0931 14.0931 12.75 15.75 12.75H18C19.6569 12.75 21 14.0931 21 15.75V18C21 19.6569 19.6569 21 18 21H15.75C14.0931 21 12.75 19.6569 12.75 18V15.75Z" />
  </symbol>

  <symbol id="icon-patient" viewBox="0 0 24 24">
    <path fill="currentColor"
      d="M12.414 5H21a1 1 0 0 1 1 1v14a1 1 0 0 1-1 1H3a1 1 0 0 1-1-1V4a1 1 0 0 1 1-1h7.414zm-.414 1.5a3.5 3.5 0 1 0 0 7 3.5 3.5 0 0 0 0-7zm0 7.5c-3 0-6 2-6 5v1h12v-1c0-3-3-5-6-5z" />
  </symbol>

  <symbol id="icon-clinical-history" viewBox="0 0 24 24">
    <path fill="currentColor" fill-rule="evenodd" clip-rule="evenodd"
      d="M1 2h7l4 4h11v17H1V2zm9 7h4v4h4v4h-4v4h-4v-4H6v-4h4V9z" />
  </symbol>

  <symbol id="icon-medical-history" viewBox="0 0 24 24">
    <g fill="none" stroke="currentColor" stroke-linecap="round" stroke-linejoin="round"
      stroke-width="1.2">
      <path d="M16 4h2a2 2 0 0 1 2 2v14a2 2 0 0 1-2 2H6a2 2 0 0 1-2-2V6a2 2 0 0 1 2-2h2" />

      <rect x="8" y="2" width="8" height="4" rx="1" />

      <path d="M12 8v4m-2-2h4" />

      <path d="M8 15h8m-8 3h5" />
    </g>
  </symbol>

  <symbol id="icon-medical-record" viewBox="0 0 384 512">
    <path fill="currentColor"
      d="M377 105L279.1 7c-4.5-4.5-10.6-7-17-7H256v128h128v-6.1c0-6.3-2.5-12.4-7-16.9m-153 31V0H24C10.7 0 0 10.7 0 24v464c0 13.3 10.7 24 24 24h336c13.3 0 24-10.7 24-24V160H248c-13.2 0-24-10.8-24-24m64 160v48c0 4.4-3.6 8-8 8h-56v56c0 4.4-3.6 8-8 8h-48c-4.4 0-8-3.6-8-8v-56h-56c-4.4 0-8-3.6-8-8v-48c0-4.4 3.6-8 8-8h56v-56c0-4.4 3.6-8 8-8h48c4.4 0 8 3.6 8 8v56h56c4.4 0 8 3.6 8 8" />
  </symbol>

  <symbol id="icon-medical-evolution" viewBox="0 0 448 512">
    <path fill="currentColor"
      d="M288 136V0H88C74.7 0 64 10.7 64 24v232H8c-4.4 0-8 3.6-8 8v16c0 4.4 3.6 8 8 8h140.9c3 0 5.8 1.7 7.2 4.4l19.9 39.8l56.8-113.7c2.9-5.9 11.4-5.9 14.3 0l34.7 69.5H352c8.8 0 16 7.2 16 16s-7.2 16-16 16h-89.9L240 275.8l-56.8 113.7c-2.9 5.9-11.4 5.9-14.3 0L134.1 320H64v168c0 13.3 10.7 24 24 24h336c13.3 0 24-10.7 24-24V160H312c-13.2 0-24-10.8-24-24m153-31L343.1 7c-4.5-4.5-10.6-7-17-7H320v128h128v-6.1c0-6.3-2.5-12.4-7-16.9" />
  </symbol>

  <symbol id="icon-catalogs" viewBox="0 0 24 24" stroke="none">
    <path fill="currentColor" stroke="none"
      d="M11.25 4.53286C9.73455 3.56279 7.93246 3 6 3C4.86178 3 3.76756 3.19535 2.75007 3.55499C2.45037 3.66091 2.25 3.94425 2.25 4.26212V18.5121C2.25 18.7556 2.36818 18.9839 2.56696 19.1245C2.76574 19.265 3.02039 19.3004 3.24993 19.2192C4.10911 18.9156 5.03441 18.75 6 18.75C7.99502 18.75 9.82325 19.4573 11.25 20.6357V4.53286Z" />
    <path fill="currentColor" stroke="none"
      d="M12.75 20.6357C14.1768 19.4573 16.005 18.75 18 18.75C18.9656 18.75 19.8909 18.9156 20.7501 19.2192C20.9796 19.3004 21.2343 19.265 21.433 19.1245C21.6318 18.9839 21.75 18.7556 21.75 18.5121V4.26212C21.75 3.94425 21.5496 3.66091 21.2499 3.55499C20.2324 3.19535 19.1382 3 18 3C16.0675 3 14.2655 3.56279 12.75 4.53286V20.6357Z" />
  </symbol>
  <symbol id="icon-catalogs-solid" viewBox="0 0 24 24" stroke="none">
    <path fill="currentColor" stroke="none"
      d="M11.25 4.53286C9.73455 3.56279 7.93246 3 6 3C4.86178 3 3.76756 3.19535 2.75007 3.55499C2.45037 3.66091 2.25 3.94425 2.25 4.26212V18.5121C2.25 18.7556 2.36818 18.9839 2.56696 19.1245C2.76574 19.265 3.02039 19.3004 3.24993 19.2192C4.10911 18.9156 5.03441 18.75 6 18.75C7.99502 18.75 9.82325 19.4573 11.25 20.6357V4.53286Z" />
    <path fill="currentColor" stroke="none"
      d="M12.75 20.6357C14.1768 19.4573 16.005 18.75 18 18.75C18.9656 18.75 19.8909 18.9156 20.7501 19.2192C20.9796 19.3004 21.2343 19.265 21.433 19.1245C21.6318 18.9839 21.75 18.7556 21.75 18.5121V4.26212C21.75 3.94425 21.5496 3.66091 21.2499 3.55499C20.2324 3.19535 19.1382 3 18 3C16.0675 3 14.2655 3.56279 12.75 4.53286V20.6357Z" />
  </symbol>

  <symbol id="icon-messages" viewBox="0 0 24 24" stroke="none">
    <path fill="currentColor" stroke="none"
      d="M4.91307 2.65823C6.9877 2.38888 9.10296 2.25 11.2503 2.25C13.3974 2.25 15.5124 2.38885 17.5869 2.65815C19.5091 2.90769 20.8783 4.51937 20.9923 6.38495C20.6665 6.27614 20.3212 6.20396 19.96 6.17399C18.5715 6.05874 17.1673 6 15.75 6C14.3326 6 12.9285 6.05874 11.54 6.17398C9.1817 6.36971 7.5 8.36467 7.5 10.6082V14.8937C7.5 16.5844 8.45468 18.1326 9.9328 18.8779L7.28033 21.5303C7.06583 21.7448 6.74324 21.809 6.46299 21.6929C6.18273 21.5768 6 21.3033 6 21V16.9705C5.63649 16.9316 5.27417 16.8887 4.91308 16.8418C2.90466 16.581 1.5 14.8333 1.5 12.8626V6.63738C1.5 4.66672 2.90466 2.91899 4.91307 2.65823Z" />
    <path fill="currentColor" stroke="none"
      d="M15.75 7.5C14.3741 7.5 13.0114 7.55702 11.6641 7.66884C10.1248 7.7966 9 9.10282 9 10.6082V14.8937C9 16.4014 10.128 17.7083 11.6692 17.8341C12.9131 17.9357 14.17 17.9912 15.4384 17.999L18.2197 20.7803C18.4342 20.9948 18.7568 21.059 19.037 20.9429C19.3173 20.8268 19.5 20.5533 19.5 20.25V17.8601C19.6103 17.8518 19.7206 17.8432 19.8307 17.8342C21.372 17.7085 22.5 16.4015 22.5 14.8938V10.6082C22.5 9.10283 21.3752 7.79661 19.836 7.66885C18.4886 7.55702 17.1259 7.5 15.75 7.5Z" />
  </symbol>
  <symbol id="icon-messages-solid" viewBox="0 0 24 24" stroke="none">
    <path fill="currentColor"
      d="M4.91307 2.65823C6.9877 2.38888 9.10296 2.25 11.2503 2.25C13.3974 2.25 15.5124 2.38885 17.5869 2.65815C19.5091 2.90769 20.8783 4.51937 20.9923 6.38495C20.6665 6.27614 20.3212 6.20396 19.96 6.17399C18.5715 6.05874 17.1673 6 15.75 6C14.3326 6 12.9285 6.05874 11.54 6.17398C9.1817 6.36971 7.5 8.36467 7.5 10.6082V14.8937C7.5 16.5844 8.45468 18.1326 9.9328 18.8779L7.28033 21.5303C7.06583 21.7448 6.74324 21.809 6.46299 21.6929C6.18273 21.5768 6 21.3033 6 21V16.9705C5.63649 16.9316 5.27417 16.8887 4.91308 16.8418C2.90466 16.581 1.5 14.8333 1.5 12.8626V6.63738C1.5 4.66672 2.90466 2.91899 4.91307 2.65823Z" />
    <path fill="currentColor"
      d="M15.75 7.5C14.3741 7.5 13.0114 7.55702 11.6641 7.66884C10.1248 7.7966 9 9.10282 9 10.6082V14.8937C9 16.4014 10.128 17.7083 11.6692 17.8341C12.9131 17.9357 14.17 17.9912 15.4384 17.999L18.2197 20.7803C18.4342 20.9948 18.7568 21.059 19.037 20.9429C19.3173 20.8268 19.5 20.5533 19.5 20.25V17.8601C19.6103 17.8518 19.7206 17.8432 19.8307 17.8342C21.372 17.7085 22.5 16.4015 22.5 14.8938V10.6082C22.5 9.10283 21.3752 7.79661 19.836 7.66885C18.4886 7.55702 17.1259 7.5 15.75 7.5Z" />
  </symbol>

  <symbol id="icon-support" viewBox="0 0 24 24" stroke="none">
    <path fill="currentColor" stroke="none" fill-rule="evenodd" clip-rule="evenodd"
      d="M12 6.75C12 3.85051 14.3505 1.5 17.25 1.5C17.7791 1.5 18.2913 1.57852 18.7747 1.72505C19.027 1.80151 19.2206 2.00479 19.2847 2.26048C19.3488 2.51618 19.2739 2.78674 19.0875 2.97313L15.7688 6.29183C15.8305 6.76741 16.0438 7.22581 16.409 7.59099C16.7742 7.95617 17.2326 8.16947 17.7082 8.23117L21.0269 4.91247C21.2133 4.72608 21.4838 4.65122 21.7395 4.7153C21.9952 4.77938 22.1985 4.97299 22.275 5.22526C22.4215 5.7087 22.5 6.22086 22.5 6.75C22.5 9.64949 20.1495 12 17.25 12C17.0995 12 16.9503 11.9936 16.8027 11.9812C15.7855 11.8952 14.9338 12.0816 14.4944 12.6151L7.34327 21.2987C6.71684 22.0593 5.78308 22.5 4.79769 22.5C2.97642 22.5 1.5 21.0236 1.5 19.2023C1.5 18.2169 1.94067 17.2832 2.70132 16.6567L11.3849 9.50557C11.9184 9.06623 12.1048 8.21453 12.0188 7.19728C12.0064 7.04968 12 6.9005 12 6.75ZM4.11723 19.125C4.11723 18.7108 4.45302 18.375 4.86723 18.375H4.87473C5.28895 18.375 5.62473 18.7108 5.62473 19.125V19.1325C5.62473 19.5468 5.28895 19.8825 4.87473 19.8825H4.86723C4.45302 19.8825 4.11723 19.5468 4.11723 19.1325V19.125Z" />
    <path fill="currentColor" stroke="none"
      d="M10.076 8.64031L7.87502 6.43936V4.87502C7.87502 4.61157 7.73679 4.36744 7.51089 4.2319L3.76089 1.9819C3.46578 1.80483 3.08804 1.85133 2.84469 2.09469L2.09469 2.84469C1.85133 3.08804 1.80483 3.46578 1.9819 3.76089L4.2319 7.51089C4.36744 7.73679 4.61157 7.87502 4.87502 7.87502H6.43936L8.50138 9.93704L10.076 8.64031Z" />
    <path fill="currentColor" stroke="none" fill-rule="evenodd" clip-rule="evenodd"
      d="M12.5559 17.3287L16.7386 21.5114C18.0567 22.8294 20.1936 22.8294 21.5116 21.5114C22.8296 20.1934 22.8296 18.0565 21.5116 16.7385L18.206 13.4328C17.8937 13.4771 17.5746 13.5 17.2501 13.5C17.0574 13.5 16.866 13.4918 16.6765 13.4758C16.2822 13.4425 15.994 13.4696 15.8089 13.5177C15.7053 13.5446 15.6574 13.5713 15.6419 13.5814L12.5559 17.3287ZM15.9698 15.9697C16.2627 15.6768 16.7375 15.6768 17.0304 15.9697L18.9054 17.8447C19.1983 18.1376 19.1983 18.6124 18.9054 18.9053C18.6125 19.1982 18.1377 19.1982 17.8448 18.9053L15.9698 17.0303C15.6769 16.7374 15.6769 16.2626 15.9698 15.9697Z" />
  </symbol>
  <symbol id="icon-support-solid" viewBox="0 0 24 24" stroke="none">
    <path fill="currentColor" stroke="none" fill-rule="evenodd" clip-rule="evenodd"
      d="M12 6.75C12 3.85051 14.3505 1.5 17.25 1.5C17.7791 1.5 18.2913 1.57852 18.7747 1.72505C19.027 1.80151 19.2206 2.00479 19.2847 2.26048C19.3488 2.51618 19.2739 2.78674 19.0875 2.97313L15.7688 6.29183C15.8305 6.76741 16.0438 7.22581 16.409 7.59099C16.7742 7.95617 17.2326 8.16947 17.7082 8.23117L21.0269 4.91247C21.2133 4.72608 21.4838 4.65122 21.7395 4.7153C21.9952 4.77938 22.1985 4.97299 22.275 5.22526C22.4215 5.7087 22.5 6.22086 22.5 6.75C22.5 9.64949 20.1495 12 17.25 12C17.0995 12 16.9503 11.9936 16.8027 11.9812C15.7855 11.8952 14.9338 12.0816 14.4944 12.6151L7.34327 21.2987C6.71684 22.0593 5.78308 22.5 4.79769 22.5C2.97642 22.5 1.5 21.0236 1.5 19.2023C1.5 18.2169 1.94067 17.2832 2.70132 16.6567L11.3849 9.50557C11.9184 9.06623 12.1048 8.21453 12.0188 7.19728C12.0064 7.04968 12 6.9005 12 6.75ZM4.11723 19.125C4.11723 18.7108 4.45302 18.375 4.86723 18.375H4.87473C5.28895 18.375 5.62473 18.7108 5.62473 19.125V19.1325C5.62473 19.5468 5.28895 19.8825 4.87473 19.8825H4.86723C4.45302 19.8825 4.11723 19.5468 4.11723 19.1325V19.125Z" />
    <path fill="currentColor" stroke="none"
      d="M10.076 8.64031L7.87502 6.43936V4.87502C7.87502 4.61157 7.73679 4.36744 7.51089 4.2319L3.76089 1.9819C3.46578 1.80483 3.08804 1.85133 2.84469 2.09469L2.09469 2.84469C1.85133 3.08804 1.80483 3.46578 1.9819 3.76089L4.2319 7.51089C4.36744 7.73679 4.61157 7.87502 4.87502 7.87502H6.43936L8.50138 9.93704L10.076 8.64031Z" />
    <path fill="currentColor" stroke="none" fill-rule="evenodd" clip-rule="evenodd"
      d="M12.5559 17.3287L16.7386 21.5114C18.0567 22.8294 20.1936 22.8294 21.5116 21.5114C22.8296 20.1934 22.8296 18.0565 21.5116 16.7385L18.206 13.4328C17.8937 13.4771 17.5746 13.5 17.2501 13.5C17.0574 13.5 16.866 13.4918 16.6765 13.4758C16.2822 13.4425 15.994 13.4696 15.8089 13.5177C15.7053 13.5446 15.6574 13.5713 15.6419 13.5814L12.5559 17.3287ZM15.9698 15.9697C16.2627 15.6768 16.7375 15.6768 17.0304 15.9697L18.9054 17.8447C19.1983 18.1376 19.1983 18.6124 18.9054 18.9053C18.6125 19.1982 18.1377 19.1982 17.8448 18.9053L15.9698 17.0303C15.6769 16.7374 15.6769 16.2626 15.9698 15.9697Z" />
  </symbol>

  <symbol id="icon-menu" viewBox="0 0 24 24">
    <line x1="3" y1="12" x2="21" y2="12" />
    <line x1="3" y1="6" x2="21" y2="6" />
    <line x1="3" y1="18" x2="21" y2="18" />
  </symbol>

  <symbol id="icon-chevron-left" viewBox="0 0 24 24">
    <polyline points="15 18 9 12 15 6" />
  </symbol>

  <symbol id="icon-chevron-right" viewBox="0 0 24 24">
    <polyline points="9 18 15 12 9 6" />
  </symbol>

  <symbol id="icon-users" viewBox="0 0 24 24" stroke="none">
    <path fill="currentColor" stroke="none" fill-rule="evenodd" clip-rule="evenodd"
      d="M8.25 6.75C8.25 4.67893 9.92893 3 12 3C14.0711 3 15.75 4.67893 15.75 6.75C15.75 8.82107 14.0711 10.5 12 10.5C9.92893 10.5 8.25 8.82107 8.25 6.75Z" />
    <path fill="currentColor" stroke="none" fill-rule="evenodd" clip-rule="evenodd"
      d="M15.75 9.75C15.75 8.09315 17.0931 6.75 18.75 6.75C20.4069 6.75 21.75 8.09315 21.75 9.75C21.75 11.4069 20.4069 12.75 18.75 12.75C17.0931 12.75 15.75 11.4069 15.75 9.75Z" />
    <path fill="currentColor" stroke="none" fill-rule="evenodd" clip-rule="evenodd"
      d="M2.25 9.75C2.25 8.09315 3.59315 6.75 5.25 6.75C6.90685 6.75 8.25 8.09315 8.25 9.75C8.25 11.4069 6.90685 12.75 5.25 12.75C3.59315 12.75 2.25 11.4069 2.25 9.75Z" />
    <path fill="currentColor" stroke="none" fill-rule="evenodd" clip-rule="evenodd"
      d="M6.30986 15.1175C7.50783 13.2444 9.60835 12 12 12C14.3919 12 16.4927 13.2447 17.6906 15.1182C18.5187 16.4134 18.877 17.9752 18.709 19.4979C18.6827 19.7359 18.5444 19.947 18.3368 20.0662C16.4694 21.1376 14.3051 21.75 12 21.75C9.69492 21.75 7.53059 21.1376 5.66325 20.0662C5.45559 19.947 5.3173 19.7359 5.29103 19.4979C5.12293 17.9749 5.48141 16.4129 6.30986 15.1175Z" />
    <path fill="currentColor" stroke="none"
      d="M5.08228 14.2537C5.07024 14.2722 5.05827 14.2907 5.04638 14.3093C4.08091 15.8189 3.63908 17.6167 3.77471 19.389C3.16667 19.2967 2.5767 19.1481 2.01043 18.9487L1.89547 18.9082C1.68576 18.8343 1.53923 18.6439 1.52159 18.4222L1.51192 18.3007C1.50402 18.2014 1.5 18.1011 1.5 18C1.5 15.9851 3.08905 14.3414 5.08228 14.2537Z" />
    <path fill="currentColor" stroke="none"
      d="M20.2256 19.389C20.3612 17.617 19.9196 15.8196 18.9545 14.3102C18.9424 14.2913 18.9303 14.2725 18.9181 14.2537C20.9111 14.3416 22.5 15.9853 22.5 18C22.5 18.1011 22.496 18.2014 22.4881 18.3007L22.4784 18.4222C22.4608 18.6439 22.3142 18.8343 22.1045 18.9082L21.9896 18.9487C21.4234 19.1481 20.8336 19.2966 20.2256 19.389Z" />
  </symbol>

  <symbol id="icon-users-solid" viewBox="0 0 24 24" stroke="none">
    <path fill="currentColor" stroke="none" fill-rule="evenodd" clip-rule="evenodd"
      d="M8.25 6.75C8.25 4.67893 9.92893 3 12 3C14.0711 3 15.75 4.67893 15.75 6.75C15.75 8.82107 14.0711 10.5 12 10.5C9.92893 10.5 8.25 8.82107 8.25 6.75Z" />
    <path fill="currentColor" stroke="none" fill-rule="evenodd" clip-rule="evenodd"
      d="M15.75 9.75C15.75 8.09315 17.0931 6.75 18.75 6.75C20.4069 6.75 21.75 8.09315 21.75 9.75C21.75 11.4069 20.4069 12.75 18.75 12.75C17.0931 12.75 15.75 11.4069 15.75 9.75Z" />
    <path fill="currentColor" stroke="none" fill-rule="evenodd" clip-rule="evenodd"
      d="M2.25 9.75C2.25 8.09315 3.59315 6.75 5.25 6.75C6.90685 6.75 8.25 8.09315 8.25 9.75C8.25 11.4069 6.90685 12.75 5.25 12.75C3.59315 12.75 2.25 11.4069 2.25 9.75Z" />
    <path fill="currentColor" stroke="none" fill-rule="evenodd" clip-rule="evenodd"
      d="M6.30986 15.1175C7.50783 13.2444 9.60835 12 12 12C14.3919 12 16.4927 13.2447 17.6906 15.1182C18.5187 16.4134 18.877 17.9752 18.709 19.4979C18.6827 19.7359 18.5444 19.947 18.3368 20.0662C16.4694 21.1376 14.3051 21.75 12 21.75C9.69492 21.75 7.53059 21.1376 5.66325 20.0662C5.45559 19.947 5.3173 19.7359 5.29103 19.4979C5.12293 17.9749 5.48141 16.4129 6.30986 15.1175Z" />
    <path fill="currentColor" stroke="none"
      d="M5.08228 14.2537C5.07024 14.2722 5.05827 14.2907 5.04638 14.3093C4.08091 15.8189 3.63908 17.6167 3.77471 19.389C3.16667 19.2967 2.5767 19.1481 2.01043 18.9487L1.89547 18.9082C1.68576 18.8343 1.53923 18.6439 1.52159 18.4222L1.51192 18.3007C1.50402 18.2014 1.5 18.1011 1.5 18C1.5 15.9851 3.08905 14.3414 5.08228 14.2537Z" />
    <path fill="currentColor" stroke="none"
      d="M20.2256 19.389C20.3612 17.617 19.9196 15.8196 18.9545 14.3102C18.9424 14.2913 18.9303 14.2725 18.9181 14.2537C20.9111 14.3416 22.5 15.9853 22.5 18C22.5 18.1011 22.496 18.2014 22.4881 18.3007L22.4784 18.4222C22.4608 18.6439 22.3142 18.8343 22.1045 18.9082L21.9896 18.9487C21.4234 19.1481 20.8336 19.2966 20.2256 19.389Z" />
  </symbol>

  <symbol id="icon-user-voice" viewBox="0 0 24 24">
    <g fill="none" stroke="currentColor" stroke-linecap="round" stroke-linejoin="round"
      stroke-width="1.5">
      <circle cx="8" cy="9" r="4" />
      <path d="M2 21a6 6 0 0 1 12 0" />

      <path d="M16 9a4 4 0 0 1 0 6" />
      <path d="M19 6a8 8 0 0 1 0 12" />
    </g>
  </symbol>

  <symbol id="icon-demography" viewBox="0 0 24 24">
    <g fill="none" stroke="currentColor" stroke-linecap="round" stroke-linejoin="round"
      stroke-width="1.5">
      <path d="M13 21H5a2 2 0 0 1-2-2V5a2 2 0 0 1 2-2h14a2 2 0 0 1 2 2v9" />

      <path d="M7 7h10" />
      <path d="M7 11h10" />
      <path d="M7 15h4" />

      <circle cx="18" cy="18" r="5" />

      <circle cx="18" cy="16.5" r="1.5" />
      <path d="M15 21.5c0-1.5 1.5-2.5 3-2.5s3 1 3 2.5" />
    </g>
  </symbol>

  <symbol id="icon-eye" viewBox="0 0 24 24">
    <path d="M1 12s4-8 11-8 11 8 11 8-4 8-11 8-11-8-11-8z" />
    <circle cx="12" cy="12" r="3" />
  </symbol>

  <symbol id="icon-eye-off" viewBox="0 0 24 24">
    <path d="M17.94 17.94A10.07 10.07 0 0 1 12 20c-7 0-11-8-11-8a18.45 18.45 0 0 1 5.06-5.94M9.9 4.24A9.12 9.12 0 0 1 12 4c7 0 11 8 11 8a18.5 18.5 0 0 1-2.16 3.19m-6.72-1.07a3 3 0 1 1-4.24-4.24" />
    <line x1="1" y1="1" x2="23" y2="23" />
  </symbol>

  <symbol id="icon-see-details" viewBox="0 0 512 512">
    <path fill="currentColor" fill-rule="evenodd"
      d="M448 128v320H128V128zm-42.667 42.667H170.667v234.666h234.666zM384 64v42.667l-277.334-.001V384H64V64zm-21.333 234.667v42.666H213.333v-42.666zm0-85.334V256H213.333v-42.667z" />
  </symbol>

  <symbol id="icon-upload" viewBox="0 0 24 24">
    <path d="M21 15v4a2 2 0 0 1-2 2H5a2 2 0 0 1-2-2v-4" />
    <polyline points="17 8 12 3 7 8" />
    <line x1="12" y1="3" x2="12" y2="15" />
  </symbol>

  <symbol id="icon-trash" viewBox="0 0 24 24">
    <polyline points="3 6 5 6 21 6" />
    <path d="M19 6v14a2 2 0 0 1-2 2H7a2 2 0 0 1-2-2V6m3 0V4a2 2 0 0 1 2-2h4a2 2 0 0 1 2 2v2" />
    <line x1="10" y1="11" x2="10" y2="17" />
    <line x1="14" y1="11" x2="14" y2="17" />
  </symbol>

  <symbol id="icon-save" viewBox="0 0 24 24">
    <path d="M19 21H5a2 2 0 0 1-2-2V5a2 2 0 0 1 2-2h11l5 5v11a2 2 0 0 1-2 2z" />
    <polyline points="17 21 17 13 7 13 7 21" />
    <polyline points="7 3 7 8 15 8" />
  </symbol>

  <symbol id="icon-lock" viewBox="0 0 24 24">
    <rect x="3" y="11" width="18" height="11" rx="2" ry="2" />
    <path d="M7 11V7a5 5 0 0 1 10 0v4" />
  </symbol>

  <symbol id="icon-x" viewBox="0 0 24 24">
    <line x1="18" y1="6" x2="6" y2="18" />
    <line x1="6" y1="6" x2="18" y2="18" />
  </symbol>

  <symbol id="icon-user" viewBox="0 0 24 24">
    <path d="M19 21v-2a4 4 0 0 0-4-4H9a4 4 0 0 0-4 4v2" />
    <circle cx="12" cy="7" r="4" />
  </symbol>

  <symbol id="icon-phone" viewBox="0 0 24 24">
    <path d="M22 16.92v3a2 2 0 0 1-2.18 2 19.79 19.79 0 0 1-8.63-3.07 19.5 19.5 0 0 1-6-6 19.79 19.79 0 0 1-3.07-8.67A2 2 0 0 1 4.11 2h3a2 2 0 0 1 2 1.72 12.84 12.84 0 0 0 .7 2.81 2 2 0 0 1-.45 2.11L8.09 9.91a16 16 0 0 0 6 6l1.27-1.27a2 2 0 0 1 2.11-.45 12.84 12.84 0 0 0 2.81.7A2 2 0 0 1 22 16.92z" />
  </symbol>

  <symbol id="icon-id-card" viewBox="0 0 24 24">
    <rect x="2" y="5" width="20" height="14" rx="2" />
    <path d="M8 10h8" />
    <path d="M8 14h8" />
    <path d="M6 10h.01" />
    <path d="M6 14h.01" />
  </symbol>

  <symbol id="icon-stethoscope" viewBox="0 0 24 24">
    <path d="M4.8 2.3A.3.3 0 1 0 5 2H4a2 2 0 0 0-2 2v5a6 6 0 0 0 6 6v0a6 6 0 0 0 6-6V4a2 2 0 0 0-2-2h-1a.2.2 0 1 0 .3.3" />
    <path d="M8 15v1a6 6 0 0 0 6 6v0a6 6 0 0 0 6-6v-4" />
    <circle cx="20" cy="10" r="2" />
  </symbol>

  <symbol id="icon-camera" viewBox="0 0 24 24">
    <path d="M23 19a2 2 0 0 1-2 2H3a2 2 0 0 1-2-2V8a2 2 0 0 1 2-2h4l2-3h6l2 3h4a2 2 0 0 1 2 2z" />
    <circle cx="12" cy="13" r="4" />
  </symbol>

  <symbol id="icon-briefcase" viewBox="0 0 24 24">
    <rect x="2" y="7" width="20" height="14" rx="2" ry="2" />
    <path d="M16 7V5a2 2 0 0 0-2-2h-4a2 2 0 0 0-2 2v2" />
  </symbol>

  <symbol id="icon-warning" viewBox="0 0 24 24">
    <path d="M10.29 3.86L1.82 18a2 2 0 0 0 1.71 3.05h16.94a2 2 0 0 0 1.71-3.05l-8.47-14.14a2 2 0 0 0-3.42 0z" />
    <line x1="12" y1="9" x2="12" y2="13" />
    <line x1="12" y1="17" x2="12.01" y2="17" />
  </symbol>

  <symbol id="icon-check" viewBox="0 0 24 24">
    <polyline points="20 6 9 17 4 12" />
  </symbol>

  <symbol id="icon-alert-triangle" viewBox="0 0 24 24">
    <path fill="none" stroke="currentColor" stroke-linecap="round" stroke-linejoin="round"
      stroke-width="2"
      d="m21.73 18l-8-14a2 2 0 0 0-3.48 0l-8 14A2 2 0 0 0 4 21h16a2 2 0 0 0 1.73-3M12 9v4m0 4h.01" />
  </symbol>

  <symbol id="icon-alert-circle" viewBox="0 0 24 24">
    <circle cx="12" cy="12" r="10" />
    <line x1="12" y1="8" x2="12" y2="12" />
    <line x1="12" y1="16" x2="12.01" y2="16" />
  </symbol>

  <symbol id="icon-info" viewBox="0 0 14 14">
    <g fill="none" stroke="currentColor" stroke-linecap="round" stroke-linejoin="round"
      stroke-width="1">
      <path
        d="M9.901 4.317v1.364M9.9 2.662a.124.124 0 0 1-.124-.125c0-.07.056-.125.124-.125m.002.25a.125.125 0 0 0 .124-.125a.124.124 0 0 0-.124-.125M.857 12.864h12.007M1.989 6.829a1.939 1.939 0 1 0 3.878 0a1.939 1.939 0 1 0-3.878 0" />
      <path
        d="M.855 12.865v-1.024a3.072 3.072 0 1 1 6.145 0v1.024m.394-6.149A3.554 3.554 0 1 0 6.33 4" />
    </g>
  </symbol>

  <symbol id="icon-info-circle" viewBox="0 0 24 24">
    <circle cx="12" cy="12" r="10" />
    <line x1="12" y1="16" x2="12" y2="12" />
    <line x1="12" y1="8" x2="12.01" y2="8" />
  </symbol>

  <symbol id="icon-bell" viewBox="0 0 24 24">
    <path d="M18 8A6 6 0 0 0 6 8c0 7-3 9-3 9h18s-3-2-3-9" />
    <path d="M13.73 21a2 2 0 0 1-3.46 0" />
  </symbol>

  <symbol id="icon-mail" viewBox="0 0 24 24">
    <path d="M4 4h16c1.1 0 2 .9 2 2v12c0 1.1-.9 2-2 2H4c-1.1 0-2-.9-2-2V6c0-1.1.9-2 2-2z" />
    <polyline points="22,6 12,13 2,6" />
  </symbol>

  <symbol id="icon-user-plus" viewBox="0 0 24 24" fill="none" stroke="currentColor" strokeWidth="2" strokeLinecap="round" strokeLinejoin="round">
    <path d="M16 21v-2a4 4 0 0 0-4-4H6a4 4 0 0 0-4 4v2" />
    <circle cx="9" cy="7" r="4" />
    <line x1="19" y1="8" x2="19" y2="14" />
    <line x1="22" y1="11" x2="16" y2="11" />
  </symbol>

  <symbol id="icon-add" viewBox="0 0 48 48">
    <g fill="none" stroke="currentColor" stroke-linejoin="round" stroke-width="4">
      <rect width="36" height="36" x="6" y="6" rx="3" />
      <path stroke-linecap="round" d="M24 16v16m-8-8h16" />
    </g>
  </symbol>

  <symbol id="icon-add-file" viewBox="0 0 24 24">
    <g fill="none" stroke="currentColor" stroke-width="1.5" stroke-linecap="round"
      stroke-linejoin="round">
      <path d="M14 3v4a1 1 0 0 0 1 1h4" />
      <path d="M17 21h-10a2 2 0 0 1 -2 -2v-14a2 2 0 0 1 2 -2h7l5 5v11a2 2 0 0 1 -2 2z" />
      <path d="M12 11l0 6" />
      <path d="M9 14l6 0" />
    </g>
  </symbol>

  <symbol id="icon-search" viewBox="0 0 24 24" fill="none" stroke="currentColor" strokeWidth="2" strokeLinecap="round" strokeLinejoin="round">
    <circle cx="11" cy="11" r="8" />
    <line x1="21" y1="21" x2="16.65" y2="16.65" />
  </symbol>

  <symbol id="icon-open-folder" viewBox="0 0 24 24">
    <g fill="none" stroke="currentColor" stroke-width="1.5" stroke-linecap="round"
      stroke-linejoin="round">
      <path
        d="M5 19l2.757 -7.351a1 1 0 0 1 .936 -.649h12.307a1 1 0 0 1 .986 1.164l-.996 5.211a2 2 0 0 1 -1.964 1.625h-14.026a2 2 0 0 1 -2 -2v-11a2 2 0 0 1 2 -2h4l3 3h7a2 2 0 0 1 2 2v2" />
    </g>
  </symbol>

  <symbol id="icon-add-folder" viewBox="0 0 24 24">
    <g fill="none" stroke="currentColor" stroke-width="1.5" stroke-linecap="round"
      stroke-linejoin="round">
      <path d="M12 19h-7a2 2 0 0 1 -2 -2v-11a2 2 0 0 1 2 -2h4l3 3h7a2 2 0 0 1 2 2v3.5" />
      <path d="M16 19h6" />
      <path d="M19 16v6" />
    </g>
  </symbol>

  <symbol id="icon-search-folder" viewBox="0 0 24 24">
    <g fill="none" stroke="currentColor" stroke-width="1.5" stroke-linecap="round"
      stroke-linejoin="round">
      <path d="M11 19h-6a2 2 0 0 1 -2 -2v-11a2 2 0 0 1 2 -2h4l3 3h7a2 2 0 0 1 2 2v2.5" />
      <path d="M18 18m-3 0a3 3 0 1 0 6 0a3 3 0 1 0 -6 0" />
      <path d="M20.2 20.2l1.8 1.8" />
    </g>
  </symbol>

  <symbol id="icon-arrow-right" viewBox="0 0 24 24" fill="none" stroke="currentColor" strokeWidth="2" strokeLinecap="round" strokeLinejoin="round">
    <line x1="5" y1="12" x2="19" y2="12" />
    <polyline points="12 5 19 12 12 19" />
  </symbol>

  <symbol id="icon-arrow-left" viewBox="0 0 24 24">
    <path fill="currentColor" d="M20 11v2H8l5.5 5.5l-1.42 1.42L4.16 12l7.92-7.92L13.5 5.5L8 11z" />
  </symbol>

  <symbol id="icon-table" viewBox="0 0 24 24">
    <rect x="3" y="5" width="18" height="14" rx="2" />
    <line x1="3" y1="10" x2="21" y2="10" />
    <line x1="9" y1="10" x2="9" y2="19" />
    <line x1="15" y1="10" x2="15" y2="19" />
  </symbol>

  <symbol id="icon-card" viewBox="0 0 24 24">
    <rect x="3" y="6" width="14" height="12" rx="2" />
    <path d="M7 10h6" />
    <path d="M7 13h4" />
    <path d="M17 9h2a2 2 0 0 1 2 2v7a2 2 0 0 1-2 2h-8" />
  </symbol>

  <symbol id="icon-sun" viewBox="0 0 24 24">
    <circle cx="12" cy="12" r="5"/>
    <line x1="12" y1="1" x2="12" y2="3"/>
    <line x1="12" y1="21" x2="12" y2="23"/>
    <line x1="4.22" y1="4.22" x2="5.64" y2="5.64"/>
    <line x1="18.36" y1="18.36" x2="19.78" y2="19.78"/>
    <line x1="1" y1="12" x2="3" y2="12"/>
    <line x1="21" y1="12" x2="23" y2="12"/>
    <line x1="4.22" y1="19.78" x2="5.64" y2="18.36"/>
    <line x1="18.36" y1="5.64" x2="19.78" y2="4.22"/>
  </symbol>

  <symbol id="icon-moon" viewBox="0 0 24 24">
    <path d="M21 12.79A9 9 0 1 1 11.21 3 7 7 0 0 0 21 12.79z"/>
  </symbol>

  <symbol id="icon-calendar" viewBox="0 0 24 24">
    <g fill="none" stroke="currentColor" stroke-width="1.5" stroke-linecap="round"
      stroke-linejoin="round">
      <path d="M11.5 21h-5.5a2 2 0 0 1 -2 -2v-12a2 2 0 0 1 2 -2h12a2 2 0 0 1 2 2v4.5" />
      <path d="M16 3v4" />
      <path d="M8 3v4" />
      <path d="M4 11h16" />
      <path d="M18 18m-3 0a3 3 0 1 0 6 0a3 3 0 1 0 -6 0" />
      <path d="M20.2 20.2l1.8 1.8" />
    </g>
  </symbol>


  <symbol id="icon-calendar-user" viewBox="0 0 24 24">
    <path fill="none" stroke="currentColor" stroke-linecap="round" stroke-linejoin="round"
      stroke-width="1.5"
      d="M12 21H6a2 2 0 0 1-2-2V7a2 2 0 0 1 2-2h12a2 2 0 0 1 2 2v4.5M16 3v4M8 3v4m-4 4h16m-3 6a2 2 0 1 0 4 0a2 2 0 1 0-4 0m5 5a2 2 0 0 0-2-2h-2a2 2 0 0 0-2 2" />
  </symbol>

  <symbol id="icon-calendar-time" viewBox="0 0 24 24">
    <g fill="none" stroke="currentColor" stroke-linecap="round" stroke-linejoin="round"
      stroke-width="1.5">
      <path d="M11.795 21H5a2 2 0 0 1-2-2V7a2 2 0 0 1 2-2h12a2 2 0 0 1 2 2v4" />
      <path d="M14 18a4 4 0 1 0 8 0a4 4 0 1 0-8 0m1-15v4M7 3v4m-4 4h16" />
      <path d="M18 16.496V18l1 1" />
    </g>
  </symbol>

  <symbol id="icon-edit" viewBox="0 0 80 80">
    <path fill="currentColor" fill-rule="evenodd"
      d="M15 23.742h23.4a3 3 0 0 0 0-6H14a5 5 0 0 0-5 5v44a5 5 0 0 0 5 5h44a5 5 0 0 0 5-5v-24.4a3 3 0 0 0-6 0v23.4H15zm51.954-.784a3.497 3.497 0 0 0 0-4.945l-3.536-3.536a3.503 3.503 0 0 0-4.954 0L30.7 42.242a16 16 0 0 0-4.555 9.266l-.433 3.358a.758.758 0 0 0 .848.849l3.359-.433a16 16 0 0 0 9.266-4.555zm-8.449 8.448l-8.48-8.48l4.242-4.244l8.48 8.481z"
      clip-rule="evenodd" />
  </symbol>

  <symbol id="icon-archive" viewBox="0 0 512 512">
    <g fill="none" stroke="currentColor" stroke-linecap="round" stroke-linejoin="round"
      stroke-width="32">
      <path d="M80 152v256a40.12 40.12 0 0 0 40 40h272a40.12 40.12 0 0 0 40-40V152" />
      <rect width="416" height="80" x="48" y="64" rx="28" ry="28" />
      <path d="m320 304l-64 64l-64-64m64 41.89V224" />
    </g>
  </symbol>

  <symbol id="icon-unarchive" viewBox="0 0 24 24">
    <path fill="none" stroke="currentColor" stroke-linecap="round" stroke-linejoin="round"
      stroke-width="1.5"
      d="M9 15s2.21-3 3-3s3 3 3 3m-3-2v8m8-13v7.01c0 2.832 0 4.248-.879 5.127c-.641.643-1.568.816-3.121.863M4 8v7.01c0 2.832 0 4.248.879 5.127c.641.643 1.568.816 3.121.863M19.5 3h-15c-.935 0-1.402 0-1.75.201a1.5 1.5 0 0 0-.549.549C2 4.098 2 4.565 2 5.5s0 1.402.201 1.75a1.5 1.5 0 0 0 .549.549C3.098 8 3.565 8 4.5 8h15c.935 0 1.402 0 1.75-.201a1.5 1.5 0 0 0 .549-.549C22 6.902 22 6.435 22 5.5s0-1.402-.201-1.75a1.5 1.5 0 0 0-.549-.549C20.902 3 20.435 3 19.5 3" />
  </symbol>

  <symbol id="icon-card-info" viewBox="0 0 640 640">
    <path fill="currentColor"
      d="M288 32h64c17.7 0 32 14.3 32 32v64H256V64c0-17.7 14.3-32 32-32M96 96h112v32c0 26.5 21.5 48 48 48h128c26.5 0 48-21.5 48-48V96h112c35.3 0 64 28.7 64 64v320c0 35.3-28.7 64-64 64H96c-35.3 0-64-28.7-64-64V160c0-35.3 28.7-64 64-64m112 368c0 8.8 7.2 16 16 16h192c8.8 0 16-7.2 16-16c0-44.2-35.8-80-80-80h-64c-44.2 0-80 35.8-80 80m112-120c30.9 0 56-25.1 56-56s-25.1-56-56-56s-56 25.1-56 56s25.1 56 56 56" />
  </symbol>

  <symbol id="icon-settings" viewBox="0 0 512 512">
    <path fill="currentColor" fill-rule="evenodd"
      d="M307.503 42.667L426.666 161.83v89.961a127.2 127.2 0 0 0-42.665-15.354L384 179.52l-94.187-94.186H128v341.333h123.79a128.65 128.65 0 0 0 40.097 42.667H85.333V42.667zM392.18 256v22.836a88.8 88.8 0 0 1 28.135 16.268l19.797-11.43l29.63 51.32l-19.785 11.423a89.4 89.4 0 0 1 1.482 16.25c0 5.55-.508 10.982-1.482 16.25l19.784 11.423l-29.63 51.32l-19.796-11.43a88.8 88.8 0 0 1-28.134 16.268v22.836h-59.26v-22.836a88.8 88.8 0 0 1-28.134-16.267l-19.798 11.43l-29.63-51.32l19.785-11.424a89.4 89.4 0 0 1-1.482-16.25c0-5.55.508-10.982 1.482-16.251l-19.784-11.422l29.63-51.32l19.796 11.43a88.8 88.8 0 0 1 28.134-16.268V256zm-29.63 71.111c-19.636 0-35.555 15.92-35.555 35.556c0 19.637 15.919 35.556 35.556 35.556s35.555-15.92 35.555-35.556c0-19.637-15.919-35.556-35.555-35.556" />
  </symbol>

  <symbol id="icon-building" viewBox="0 0 448 512">
    <path fill="currentColor"
      d="M128 244v-40c0-6.627 5.373-12 12-12h40c6.627 0 12 5.373 12 12v40c0 6.627-5.373 12-12 12h-40c-6.627 0-12-5.373-12-12m140 12h40c6.627 0 12-5.373 12-12v-40c0-6.627-5.373-12-12-12h-40c-6.627 0-12 5.373-12 12v40c0 6.627 5.373 12 12 12m-76 84v-40c0-6.627-5.373-12-12-12h-40c-6.627 0-12 5.373-12 12v40c0 6.627 5.373 12 12 12h40c6.627 0 12-5.373 12-12m76 12h40c6.627 0 12-5.373 12-12v-40c0-6.627-5.373-12-12-12h-40c-6.627 0-12 5.373-12 12v40c0 6.627 5.373 12 12 12m180 124v36H0v-36c0-6.627 5.373-12 12-12h19.5V85.035C31.5 73.418 42.245 64 55.5 64H144V24c0-13.255 10.745-24 24-24h112c13.255 0 24 10.745 24 24v40h88.5c13.255 0 24 9.418 24 21.035V464H436c6.627 0 12 5.373 12 12M79.5 463H192v-67c0-6.627 5.373-12 12-12h40c6.627 0 12 5.373 12 12v67h112.5V112H304v24c0 13.255-10.745 24-24 24H168c-13.255 0-24-10.745-24-24v-24H79.5zM266 64h-26V38a6 6 0 0 0-6-6h-20a6 6 0 0 0-6 6v26h-26a6 6 0 0 0-6 6v20a6 6 0 0 0 6 6h26v26a6 6 0 0 0 6 6h20a6 6 0 0 0 6-6V96h26a6 6 0 0 0 6-6V70a6 6 0 0 0-6-6" />
  </symbol>

  <symbol id="icon-medical-center" viewBox="0 0 24 24">
    <g fill="none" stroke="currentColor" stroke-linecap="round" stroke-linejoin="round"
      stroke-width="1.5">
      <path
        d="M1.5.75v22.5M6 6.75H1.5M6 17.25H1.5m17.25-7.5H16.5V7.5a.75.75 0 0 0-.75-.75h-3a.75.75 0 0 0-.75.75v2.25H9.75a.75.75 0 0 0-.75.75v3a.75.75 0 0 0 .75.75H12v2.25a.75.75 0 0 0 .75.75h3a.75.75 0 0 0 .75-.75v-2.25h2.25a.75.75 0 0 0 .75-.75v-3a.75.75 0 0 0-.75-.75" />
      <path d="M7 3.75h14.5s1 0 1 1v14.5s0 1-1 1H7s-1 0-1-1V4.75s0-1 1-1" />
    </g>
  </symbol>

  <symbol id="icon-code" viewBox="0 0 2048 2048">
    <path fill="currentColor"
      d="M1024 1280H640v-75q0-38 14-73q11-28 33-54t50-53t55-50t51-49t38-47t15-47q0-26-19-45t-45-19q-23 0-40 14t-23 37l-125-26q6-33 23-61t44-48t57-32t64-12q40 0 75 15t61 41t41 61t15 75q0 39-11 70t-31 58t-44 51t-51 46t-51 46t-47 49h235zM2048 256v1408H0V256zm-128 128H128v1152h1792zM397 787q-29 17-68 31t-73 14V704q11 0 31-6t40-15t36-21t22-22h127v640H397zm923 493q-42 0-81-14t-75-37v-127q20 15 35 26t32 18t34 10t45 3q22 0 42-4t35-15t25-28t9-42q0-31-24-44t-56-18t-65-3t-53 2v-97h58q31 0 58-7t45-26t18-57q0-42-25-56t-64-14q-40 0-69 18t-58 43V681q34-23 76-32t82-9q36 0 70 10t60 29t43 49t16 69q0 48-19 85t-62 61q44 15 72 53t28 85t-20 84t-52 62t-75 39t-85 14" />
  </symbol>

  <symbol id="icon-map-pin" viewBox="0 0 1024 1024">
    <path fill="currentColor"
      d="M800 416a288 288 0 1 0-576 0c0 118.1 94.5 272.1 288 456.6C705.5 688 800 534 800 416M512 960Q160 640 160 416a352 352 0 0 1 704 0q0 224-352 544" />
    <path fill="currentColor"
      d="M512 448a64 64 0 1 0 0-128a64 64 0 0 0 0 128m0 64a128 128 0 1 1 0-256a128 128 0 0 1 0 256m345.6 192L960 960H672v-64H352v64H64l102.4-256zm-69 0H235.4l-76.8 192h707z" />
  </symbol>

  <symbol id="icon-filters" viewBox="0 0 24 24">
    <path fill="none" stroke="currentColor" stroke-linecap="round" stroke-miterlimit="10"
      stroke-width="1.5"
      d="M21.25 12H8.895m-4.361 0H2.75m18.5 6.607h-5.748m-4.361 0H2.75m18.5-13.214h-3.105m-4.361 0H2.75m13.214 2.18a2.18 2.18 0 1 0 0-4.36a2.18 2.18 0 0 0 0 4.36Zm-9.25 6.607a2.18 2.18 0 1 0 0-4.36a2.18 2.18 0 0 0 0 4.36Zm6.607 6.608a2.18 2.18 0 1 0 0-4.361a2.18 2.18 0 0 0 0 4.36Z" />
  </symbol>
</svg>
