<svg width="151" height="55" viewBox="0 0 151 55" fill="none" xmlns="http://www.w3.org/2000/svg">
<path d="M141.628 54.2396C140.012 54.2396 138.593 53.9625 137.369 53.4085C136.169 52.8544 135.164 52.1156 134.356 51.1922C133.571 50.2456 132.971 49.1952 132.556 48.0409C132.163 46.8865 131.967 45.7091 131.967 44.5086V43.8507C131.967 42.604 132.163 41.4035 132.556 40.2492C132.971 39.0718 133.571 38.0329 134.356 37.1325C135.164 36.2091 136.157 35.4818 137.334 34.9509C138.512 34.3968 139.874 34.1198 141.421 34.1198C143.452 34.1198 145.149 34.5699 146.511 35.4703C147.896 36.3476 148.935 37.5135 149.628 38.9679C150.321 40.3993 150.667 41.946 150.667 43.6083V45.3398H134.01V42.3962H147.654L146.165 43.8507C146.165 42.6502 145.992 41.6228 145.646 40.7686C145.299 39.9144 144.768 39.2565 144.053 38.7948C143.36 38.333 142.483 38.1022 141.421 38.1022C140.359 38.1022 139.458 38.3446 138.72 38.8294C137.981 39.3142 137.415 40.0183 137.023 40.9418C136.653 41.8422 136.469 42.9272 136.469 44.197C136.469 45.3744 136.653 46.4248 137.023 47.3483C137.392 48.2486 137.958 48.9643 138.72 49.4953C139.481 50.0032 140.451 50.2572 141.628 50.2572C142.806 50.2572 143.764 50.0263 144.503 49.5646C145.241 49.0798 145.715 48.4911 145.923 47.7985H150.355C150.078 49.0913 149.547 50.2225 148.762 51.1922C147.977 52.1618 146.973 52.9121 145.749 53.4431C144.549 53.9741 143.175 54.2396 141.628 54.2396Z" fill="url(#paint0_linear_171_31)"/>
<path d="M118.908 53.5816V34.7777H122.717V42.7425H122.614C122.614 40.0414 123.191 37.9982 124.345 36.6131C125.499 35.2279 127.196 34.5353 129.436 34.5353H130.128V38.7255H128.812C127.196 38.7255 125.938 39.1641 125.038 40.0414C124.16 40.8956 123.722 42.1423 123.722 43.7814V53.5816H118.908Z" fill="url(#paint1_linear_171_31)"/>
<path d="M109.941 53.5816V48.0062H109.144V41.8075C109.144 40.7225 108.879 39.9144 108.348 39.3835C107.817 38.8525 106.997 38.587 105.889 38.587C105.312 38.587 104.619 38.5985 103.811 38.6216C103.003 38.6447 102.184 38.6793 101.353 38.7255C100.545 38.7486 99.8174 38.7832 99.171 38.8294V34.7431C99.702 34.6969 100.302 34.6507 100.972 34.6046C101.641 34.5584 102.322 34.5353 103.015 34.5353C103.731 34.5122 104.4 34.5007 105.023 34.5007C106.963 34.5007 108.567 34.7546 109.837 35.2625C111.13 35.7704 112.099 36.5669 112.746 37.652C113.415 38.737 113.75 40.1568 113.75 41.9114V53.5816H109.941ZM103.881 54.0664C102.519 54.0664 101.318 53.824 100.279 53.3392C99.2633 52.8544 98.4669 52.1618 97.8897 51.2614C97.3356 50.361 97.0586 49.276 97.0586 48.0062C97.0586 46.621 97.3933 45.4898 98.0629 44.6125C98.7554 43.7352 99.7135 43.0773 100.937 42.6386C102.184 42.2 103.638 41.9807 105.3 41.9807H109.664V44.8549H105.231C104.123 44.8549 103.269 45.132 102.669 45.686C102.091 46.217 101.803 46.9096 101.803 47.7638C101.803 48.618 102.091 49.3106 102.669 49.8416C103.269 50.3726 104.123 50.6381 105.231 50.6381C105.901 50.6381 106.512 50.5227 107.067 50.2918C107.644 50.0378 108.117 49.6223 108.486 49.0451C108.879 48.4449 109.098 47.6369 109.144 46.621L110.322 47.9716C110.206 49.2875 109.883 50.3957 109.352 51.2961C108.844 52.1964 108.129 52.889 107.205 53.3738C106.305 53.8356 105.197 54.0664 103.881 54.0664Z" fill="url(#paint2_linear_171_31)"/>
<path d="M74.1483 53.5816L77.7152 35.401H83.2559L87.3769 53.5816H83.5676L79.3774 35.5049H81.3859L77.6805 53.5816H74.1483ZM72.7285 53.5816L72.6939 49.6338H76.5378V53.5816H72.7285ZM70.7892 53.5816L65.6641 34.7777H70.3391L75.2218 53.5816H70.7892ZM84.7796 53.5816V49.6338H88.6235L88.5889 53.5816H84.7796ZM86.3033 53.5816L90.632 34.7777H94.9954L90.4589 53.5816H86.3033Z" fill="url(#paint3_linear_171_31)"/>
<path d="M120.677 31.1548V7.68316C120.677 5.06582 121.395 3.138 122.83 1.89968C124.294 0.633228 126.447 0 129.289 0L132.16 0V4.51703H128.867C127.995 4.51703 127.319 4.75624 126.841 5.23468C126.39 5.68498 126.165 6.33228 126.165 7.17658V31.1548H120.677ZM117.807 12.9178V8.6119H132.54V12.9178H117.807Z" fill="url(#paint4_linear_171_31)"/>
<path d="M102.493 31.9569C100.467 31.9569 98.6796 31.6332 97.1317 30.9859C95.5838 30.3386 94.2751 29.4662 93.2056 28.3686C92.1362 27.2429 91.32 25.9764 90.7572 24.5692C90.2224 23.1621 89.9551 21.6986 89.9551 20.1789V19.2923C89.9551 17.7163 90.2365 16.2247 90.7994 14.8175C91.3904 13.3822 92.2206 12.1158 93.2901 11.0182C94.3877 9.89242 95.7104 9.01998 97.2583 8.40082C98.8062 7.75352 100.551 7.42987 102.493 7.42987C104.435 7.42987 106.18 7.75352 107.728 8.40082C109.276 9.01998 110.584 9.89242 111.654 11.0182C112.751 12.1158 113.582 13.3822 114.144 14.8175C114.707 16.2247 114.989 17.7163 114.989 19.2923V20.1789C114.989 21.6986 114.707 23.1621 114.144 24.5692C113.61 25.9764 112.808 27.2429 111.738 28.3686C110.669 29.4662 109.36 30.3386 107.812 30.9859C106.264 31.6332 104.491 31.9569 102.493 31.9569ZM102.493 26.9333C103.928 26.9333 105.138 26.6237 106.123 26.0046C107.109 25.3573 107.854 24.4989 108.361 23.4294C108.867 22.3318 109.121 21.0935 109.121 19.7145C109.121 18.3073 108.853 17.069 108.319 15.9996C107.812 14.902 107.052 14.0436 106.039 13.4244C105.054 12.7771 103.872 12.4535 102.493 12.4535C101.114 12.4535 99.9179 12.7771 98.9047 13.4244C97.9197 14.0436 97.1598 14.902 96.6251 15.9996C96.0904 17.069 95.823 18.3073 95.823 19.7145C95.823 21.0935 96.0763 22.3318 96.5829 23.4294C97.1176 24.4989 97.8775 25.3573 98.8625 26.0046C99.8475 26.6237 101.058 26.9333 102.493 26.9333Z" fill="#EAEBE2"/>
<path d="M76.6223 31.8725C73.4703 31.8725 70.9936 31.2111 69.1925 29.8884C67.4194 28.5375 66.4907 26.68 66.4062 24.3159H71.6831C71.7676 25.104 72.2038 25.8216 72.9918 26.4689C73.7798 27.1162 75.0181 27.4399 76.7068 27.4399C78.1139 27.4399 79.2256 27.1866 80.0418 26.68C80.8861 26.1734 81.3082 25.4839 81.3082 24.6115C81.3082 23.8516 80.9846 23.2465 80.3373 22.7962C79.7181 22.3459 78.6487 22.0504 77.1289 21.9097L75.1026 21.6986C72.5415 21.4172 70.5715 20.6854 69.1925 19.5034C67.8134 18.3214 67.1239 16.7454 67.1239 14.7753C67.1239 13.1993 67.5179 11.8765 68.3059 10.8071C69.094 9.73764 70.1775 8.93555 71.5565 8.40082C72.9637 7.83795 74.5679 7.55652 76.369 7.55652C79.1834 7.55652 81.463 8.17567 83.2079 9.41399C84.9528 10.6523 85.8674 12.4676 85.9519 14.8597H80.675C80.6187 14.0717 80.2247 13.3963 79.493 12.8334C78.7612 12.2705 77.7058 11.9891 76.3268 11.9891C75.0885 11.9891 74.1316 12.2283 73.4562 12.7068C72.7807 13.1852 72.443 13.8044 72.443 14.5642C72.443 15.296 72.7104 15.8588 73.2451 16.2528C73.808 16.6469 74.7086 16.9142 75.9469 17.0549L77.9732 17.266C80.675 17.5474 82.7857 18.2932 84.3055 19.5034C85.8534 20.7136 86.6273 22.3459 86.6273 24.4004C86.6273 25.9201 86.2052 27.2429 85.3609 28.3686C84.5447 29.4662 83.3908 30.3246 81.8992 30.9437C80.4076 31.5629 78.6487 31.8725 76.6223 31.8725Z" fill="#EAEBE2"/>
<path d="M146.58 31.4503C144.469 31.4503 142.724 31.1829 141.345 30.6482C139.994 30.0853 138.981 29.1566 138.306 27.862C137.63 26.5393 137.293 24.7662 137.293 22.5429L137.335 1.77301L142.823 1.77301L142.781 22.9228C142.781 24.0486 143.076 24.921 143.667 25.5402C144.286 26.1312 145.159 26.4267 146.284 26.4267H149.873V31.4503H146.58ZM133.662 12.5379V8.23193H149.873V12.5379L133.662 12.5379Z" fill="url(#paint5_linear_171_31)"/>
<path d="M16.6377 40.3144C11.333 40.3144 7.2338 38.9489 4.34028 36.218C1.44676 33.4678 -5.40544e-07 29.5253 -4.08014e-07 24.3904C-2.78958e-07 19.3901 1.22492 15.5052 3.67477 12.7358C6.14391 9.96642 9.61613 8.58173 14.0914 8.58173C18.4703 8.58173 21.8557 9.86065 24.2477 12.4185C26.6397 14.9763 27.8357 18.6977 27.8357 23.5826C27.8357 24.9673 27.7778 26.2847 27.662 27.5348L5.15046 27.5348L5.15046 22.1114L20.1389 22.1114C20.1389 20.0536 19.6084 18.4765 18.5475 17.3803C17.5058 16.2841 16.0397 15.736 14.1493 15.736C12.1046 15.736 10.5131 16.4668 9.375 17.9284C8.25618 19.3708 7.69676 21.4286 7.69676 24.1019C7.69676 26.9867 8.52624 29.1791 10.1852 30.6792C11.8634 32.1793 14.2458 32.9293 17.3322 32.9293C18.7211 32.9293 20.0907 32.862 21.441 32.7274C22.7913 32.5735 24.1705 32.3716 25.5787 32.1216L26.331 39.5066C24.3634 39.8528 22.5695 40.074 20.9491 40.1701C19.3287 40.2663 17.8916 40.3144 16.6377 40.3144Z" fill="#F6F7ED"/>
<path d="M36.9885 19.7112L36.9885 27.2981L40.5519 27.2981C42.9078 27.2981 44.838 27.7016 46.3426 28.5085C47.8669 29.3351 49.0647 30.6635 49.9357 32.4938C50.8068 34.3438 51.4403 36.8038 51.8362 39.874L60.1213 39.874C59.27 33.1039 57.3497 28.046 54.3604 24.7003C51.371 21.3743 47.2631 19.7112 42.0367 19.7112L36.9885 19.7112ZM32.0293 8.58186L32.0293 52.8632L40.0768 52.8632L40.0768 8.58186L32.0293 8.58186ZM52.6083 8.58186L44.8875 23.8146L52.0738 26.2354L62.1406 8.58186L52.6083 8.58186Z" fill="#D1FF39"/>
<path d="M52.0703 52.7957V45.0465H60.2624V52.7957H52.0703Z" fill="#D1FF39"/>
<defs>
<linearGradient id="paint0_linear_171_31" x1="64.9724" y1="27.8567" x2="222.62" y2="27.8567" gradientUnits="userSpaceOnUse">
<stop stop-color="#F1FF39"/>
<stop offset="1" stop-color="#0AE98A"/>
</linearGradient>
<linearGradient id="paint1_linear_171_31" x1="64.972" y1="27.8567" x2="222.619" y2="27.8567" gradientUnits="userSpaceOnUse">
<stop stop-color="#F1FF39"/>
<stop offset="1" stop-color="#0AE98A"/>
</linearGradient>
<linearGradient id="paint2_linear_171_31" x1="64.9701" y1="27.8567" x2="222.617" y2="27.8567" gradientUnits="userSpaceOnUse">
<stop stop-color="#F1FF39"/>
<stop offset="1" stop-color="#0AE98A"/>
</linearGradient>
<linearGradient id="paint3_linear_171_31" x1="64.9716" y1="27.8567" x2="222.619" y2="27.8567" gradientUnits="userSpaceOnUse">
<stop stop-color="#F1FF39"/>
<stop offset="1" stop-color="#0AE98A"/>
</linearGradient>
<linearGradient id="paint4_linear_171_31" x1="64.9726" y1="27.8568" x2="222.62" y2="27.8568" gradientUnits="userSpaceOnUse">
<stop stop-color="#F1FF39"/>
<stop offset="1" stop-color="#0AE98A"/>
</linearGradient>
<linearGradient id="paint5_linear_171_31" x1="64.971" y1="27.8567" x2="222.618" y2="27.8567" gradientUnits="userSpaceOnUse">
<stop stop-color="#F1FF39"/>
<stop offset="1" stop-color="#0AE98A"/>
</linearGradient>
</defs>
</svg>
